<svg width="129" height="104" viewBox="0 0 129 104" fill="none" xmlns="http://www.w3.org/2000/svg">
<path d="M128.288 91.803H0V91.8672H128.288V91.803Z" fill="#EBEBEB"/>
<path d="M115.433 95.9314H106.936V95.9955H115.433V95.9314Z" fill="#EBEBEB"/>
<path d="M84.9836 96.6292H82.7539V96.6934H84.9836V96.6292Z" fill="#EBEBEB"/>
<path d="M106.68 93.5503H101.756V93.6145H106.68V93.5503Z" fill="#EBEBEB"/>
<path d="M24.5415 93.9814H13.46V94.0455H24.5415V93.9814Z" fill="#EBEBEB"/>
<path d="M28.4523 93.9814H26.8281V94.0455H28.4523V93.9814Z" fill="#EBEBEB"/>
<path d="M57.7684 95.0641H33.7324V95.1283H57.7684V95.0641Z" fill="#EBEBEB"/>
<path d="M60.8084 80.3598H11.2662C10.8781 80.3591 10.5061 80.2044 10.2319 79.9298C9.95771 79.6551 9.80371 79.2828 9.80371 78.8947V9.25236C9.80709 8.86648 9.96258 8.49751 10.2364 8.2256C10.5102 7.95369 10.8803 7.8008 11.2662 7.80014H60.8084C61.197 7.80014 61.5696 7.95449 61.8444 8.22924C62.1191 8.50399 62.2735 8.87663 62.2735 9.26519V78.8947C62.2735 79.2833 62.1191 79.6559 61.8444 79.9307C61.5696 80.2054 61.197 80.3598 60.8084 80.3598ZM11.2662 7.85146C10.8951 7.85214 10.5394 8.00003 10.2773 8.26268C10.0151 8.52532 9.86785 8.88126 9.86785 9.25236V78.8947C9.86785 79.2658 10.0151 79.6218 10.2773 79.8844C10.5394 80.1471 10.8951 80.2949 11.2662 80.2956H60.8084C61.1798 80.295 61.5357 80.1471 61.7983 79.8846C62.0608 79.622 62.2086 79.2661 62.2093 78.8947V9.25236C62.2086 8.88102 62.0608 8.52509 61.7983 8.26252C61.5357 7.99995 61.1798 7.85213 60.8084 7.85146H11.2662Z" fill="#EBEBEB"/>
<path d="M116.309 80.3598H66.7639C66.3755 80.3591 66.0033 80.2045 65.7287 79.9299C65.4541 79.6553 65.2995 79.2831 65.2988 78.8947V9.25236C65.3029 8.86624 65.4589 8.49728 65.7332 8.22544C66.0074 7.9536 66.3777 7.80079 66.7639 7.80014H116.309C116.694 7.80148 117.064 7.95466 117.337 8.2265C117.61 8.49834 117.765 8.86692 117.769 9.25236V78.8947C117.769 79.2824 117.615 79.6543 117.341 79.9289C117.068 80.2035 116.696 80.3584 116.309 80.3598ZM66.7639 7.85146C66.3925 7.85213 66.0366 7.99995 65.774 8.26252C65.5115 8.52509 65.3637 8.88102 65.363 9.25236V78.8947C65.3637 79.2661 65.5115 79.622 65.774 79.8846C66.0366 80.1471 66.3925 80.295 66.7639 80.2956H116.309C116.68 80.295 117.036 80.1471 117.299 79.8846C117.561 79.622 117.709 79.2661 117.71 78.8947V9.25236C117.709 8.88102 117.561 8.52509 117.299 8.26252C117.036 7.99995 116.68 7.85213 116.309 7.85146H66.7639Z" fill="#EBEBEB"/>
<path d="M102.196 18.5199H69.5957V91.8031H102.196V18.5199Z" fill="#F0F0F0"/>
<path d="M102.197 18.5199H70.2842V91.8031H102.197V18.5199Z" fill="#F5F5F5"/>
<path d="M100.249 90.1404V20.1825H72.2258V90.1404H100.249Z" fill="#F0F0F0"/>
<path d="M74.9814 33.2011C74.9804 32.1975 75.1772 31.2035 75.5604 30.276C75.9436 29.3484 76.5058 28.5054 77.2149 27.7951C77.9239 27.0848 78.766 26.5212 79.6929 26.1365C80.6199 25.7517 81.6135 25.5533 82.6171 25.5526H89.8526C90.8572 25.5516 91.8521 25.7488 92.7804 26.1328C93.7086 26.5169 94.552 27.0803 95.2623 27.7907C95.9725 28.5012 96.5356 29.3448 96.9193 30.2732C97.3031 31.2016 97.4999 32.1966 97.4985 33.2011H74.9814Z" fill="#FAFAFA"/>
<path d="M97.499 85.7915V69.0781H74.9845V85.7915H97.499Z" fill="#F5F5F5"/>
<path d="M74.982 66.9229H84.9141V37.9067H74.982V66.9229Z" fill="#F5F5F5"/>
<path d="M87.564 66.9229H97.4961V37.9067H87.564V66.9229Z" fill="#F5F5F5"/>
<path d="M93.9066 52.2827H97.9733C98.1407 52.2827 98.3012 52.2162 98.4196 52.0978C98.538 51.9794 98.6045 51.8189 98.6045 51.6515C98.6038 51.4843 98.5371 51.3242 98.4189 51.2059C98.3006 51.0877 98.1405 51.021 97.9733 51.0203H93.9066C93.7392 51.0203 93.5786 51.0868 93.4603 51.2052C93.3419 51.3236 93.2754 51.4841 93.2754 51.6515C93.2754 51.8189 93.3419 51.9794 93.4603 52.0978C93.5786 52.2162 93.7392 52.2827 93.9066 52.2827Z" fill="#E0E0E0"/>
<path d="M100.249 90.1404V20.1825H99.7436V90.1404H100.249Z" fill="#F0F0F0"/>
<path d="M18.0605 63.3308H49.078V19.4282C49.078 15.931 18.0605 15.931 18.0605 19.4282V63.3308Z" fill="#E0E0E0"/>
<path d="M18.7734 63.3308H49.7883V19.4282C49.7883 15.931 18.7709 15.931 18.7734 19.4282V63.3308Z" fill="#EBEBEB"/>
<path d="M48.2495 61.1294V20.2954C48.25 20.1585 48.2082 20.0247 48.1296 19.9126C48.051 19.8005 47.9396 19.7155 47.8107 19.6693C46.0891 19.051 41.3963 18.3454 34.2815 18.3454C27.1666 18.3454 22.479 19.051 20.7522 19.6693C20.6233 19.7155 20.5119 19.8005 20.4333 19.9126C20.3548 20.0247 20.3129 20.1585 20.3135 20.2954V61.1294C20.3135 61.305 20.3832 61.4734 20.5074 61.5975C20.6315 61.7216 20.7999 61.7914 20.9754 61.7914H47.5875C47.7631 61.7914 47.9314 61.7216 48.0556 61.5975C48.1797 61.4734 48.2495 61.305 48.2495 61.1294Z" fill="#FAFAFA"/>
<path d="M41.6938 18.6405L46.5303 61.7914H39.4667L34.5918 18.3454C37.3423 18.3531 39.7182 18.4686 41.6938 18.6405Z" fill="white"/>
<path d="M32.56 18.3608L37.4349 61.7914H33.5273L28.6729 18.5071C29.8557 18.4352 31.1539 18.3839 32.56 18.3608Z" fill="white"/>
<path d="M29.6631 62.3635L29.6631 17.6834H28.3084L28.3084 62.3635H29.6631Z" fill="#EBEBEB"/>
<path d="M40.5723 62.3635V17.6834H39.2175V62.3635H40.5723Z" fill="#EBEBEB"/>
<path d="M39.2178 62.361V17.6809H38.974V62.361H39.2178Z" fill="#E0E0E0"/>
<path d="M28.3076 62.361L28.3076 17.6809H28.0639L28.0639 62.361H28.3076Z" fill="#E0E0E0"/>
<path d="M19.8158 28.8778L49.0654 28.8778V27.5231L19.8158 27.5231V28.8778Z" fill="#EBEBEB"/>
<path d="M19.5587 64.4162H51.2021V62.9203L19.5587 62.9203V64.4162Z" fill="#F5F5F5"/>
<path d="M19.559 62.9178H18.0605V64.4136H19.559V62.9178Z" fill="#E0E0E0"/>
<path d="M106.998 13.0035L114.733 13.0035V10.8175H106.998V13.0035Z" fill="#F0F0F0"/>
<path d="M103.13 15.1895L110.866 15.1895V13.0035H103.13V15.1895Z" fill="#E6E6E6"/>
<path d="M52.5953 45.1653H60.3311V42.9793H52.5953V45.1653Z" fill="#F5F5F5"/>
<path d="M41.1187 72.683H48.8545V70.497H41.1187V72.683Z" fill="#F5F5F5"/>
<path d="M114.733 72.9422H106.997V75.1282H114.733V72.9422Z" fill="#E6E6E6"/>
<path d="M48.7262 6.16062L56.4619 6.16062V3.9746L48.7262 3.9746V6.16062Z" fill="#F0F0F0"/>
<path d="M20.3101 85.9608H28.0459V83.7748H20.3101V85.9608Z" fill="#F5F5F5"/>
<path d="M14.1939 70.089H21.9297V67.903H14.1939V70.089Z" fill="#F5F5F5"/>
<path d="M24.1822 88.1469H31.918V85.9608H24.1822V88.1469Z" fill="#F0F0F0"/>
<path d="M26.5092 11.1331H18.7734V13.3191H26.5092V11.1331Z" fill="#F0F0F0"/>
<path d="M64.144 103.39C91.6188 103.39 113.891 102.09 113.891 100.486C113.891 98.8815 91.6188 97.5811 64.144 97.5811C36.6692 97.5811 14.3965 98.8815 14.3965 100.486C14.3965 102.09 36.6692 103.39 64.144 103.39Z" fill="#F5F5F5"/>
<path d="M33.904 26.3583C32.385 26.6944 30.6198 28.824 32.3645 30.9972C34.1092 33.1703 31.1868 32.221 30.7327 36.0235C30.2785 39.8259 33.7449 39.187 32.657 41.681C31.5691 44.1749 39.1201 48.1262 43.8309 45.1319C48.5416 42.1377 48.9829 35.6899 47.5102 33.4115C46.0374 31.1331 43.8873 30.9895 44.8623 28.5494C45.8373 26.1094 44.6878 23.5718 41.6474 23.5488C39.3536 23.5308 40.7289 21.9272 37.573 21.94C34.9405 21.9529 32.6134 23.8002 33.904 26.3583Z" fill="#263238"/>
<path d="M42.3478 29.5372C42.1997 29.5372 42.0548 29.5812 41.9316 29.6635C41.8084 29.7458 41.7124 29.8628 41.6557 29.9997C41.599 30.1366 41.5841 30.2873 41.613 30.4326C41.6419 30.5779 41.7133 30.7114 41.8181 30.8162C41.9228 30.921 42.0563 30.9923 42.2017 31.0212C42.347 31.0502 42.4976 31.0353 42.6345 30.9786C42.7714 30.9219 42.8884 30.8259 42.9708 30.7027C43.0531 30.5795 43.097 30.4346 43.097 30.2864C43.0974 30.188 43.0782 30.0904 43.0407 29.9993C43.0032 29.9083 42.948 29.8256 42.8784 29.7559C42.8087 29.6863 42.726 29.6311 42.6349 29.5936C42.5439 29.5561 42.4463 29.5369 42.3478 29.5372ZM42.3478 30.8586C42.2341 30.8586 42.1228 30.8248 42.0283 30.7616C41.9337 30.6983 41.86 30.6084 41.8166 30.5032C41.7732 30.3981 41.762 30.2824 41.7843 30.1708C41.8067 30.0592 41.8617 29.9568 41.9424 29.8766C42.023 29.7963 42.1256 29.7418 42.2373 29.7199C42.3489 29.698 42.4646 29.7097 42.5696 29.7536C42.6745 29.7975 42.7641 29.8716 42.827 29.9664C42.8898 30.0613 42.9231 30.1727 42.9226 30.2864C42.9226 30.3618 42.9077 30.4364 42.8788 30.506C42.8499 30.5756 42.8075 30.6388 42.7541 30.6919C42.7007 30.7451 42.6373 30.7872 42.5676 30.8158C42.4979 30.8444 42.4232 30.8589 42.3478 30.8586Z" fill="white"/>
<path d="M48.6646 36.8368C48.6562 36.8356 48.6481 36.8327 48.6409 36.8282C48.6337 36.8237 48.6275 36.8178 48.6227 36.8108C48.6178 36.8039 48.6145 36.7959 48.6129 36.7876C48.6113 36.7793 48.6114 36.7707 48.6133 36.7624C48.8442 35.5668 47.9128 34.4096 46.9276 33.1704C45.7755 31.7412 44.4721 30.1197 44.9314 28.1877C45.324 26.5404 45.1495 25.1652 44.4388 24.3134C43.8589 23.618 42.9532 23.2871 41.7499 23.3589C40.6466 23.4153 40.3207 23.1023 39.9743 22.7996C39.628 22.4968 39.1687 22.0683 37.5856 22.0786C37.5691 22.0786 37.5531 22.0722 37.5412 22.0607C37.5292 22.0492 37.5221 22.0336 37.5215 22.017C37.5215 21.9998 37.5281 21.9832 37.5401 21.9707C37.5521 21.9583 37.5684 21.951 37.5856 21.9503H37.6395C39.2354 21.9503 39.6742 22.3506 40.0616 22.7046C40.4003 23.0151 40.6953 23.2845 41.7447 23.2306C42.9891 23.1665 43.9307 23.5026 44.5388 24.2313C45.2752 25.1164 45.4574 26.5404 45.052 28.2184C44.6081 30.0889 45.8345 31.6155 47.0225 33.0934C48.0257 34.3429 48.975 35.5232 48.7338 36.7752C48.7335 36.7839 48.7315 36.7924 48.7278 36.8002C48.7241 36.8081 48.7188 36.8151 48.7124 36.8208C48.7059 36.8266 48.6983 36.831 48.6901 36.8337C48.6819 36.8365 48.6732 36.8375 48.6646 36.8368Z" fill="#263238"/>
<path d="M54.6969 31.9337L54.3531 32.6059C54.2886 32.7304 54.2549 32.8685 54.2549 33.0087C54.2549 33.1489 54.2886 33.2871 54.3531 33.4115L54.9612 34.5918C55.0811 34.8246 55.255 35.0252 55.4684 35.177C55.6818 35.3288 55.9284 35.4272 56.1876 35.4641L56.5109 35.5103C57.1626 34.4353 57.0728 32.7932 57.0728 32.7932L57.0985 32.3237C57.1069 32.2272 57.0961 32.13 57.0666 32.0377C57.0371 31.9454 56.9896 31.8599 56.9269 31.7862C56.8641 31.7124 56.7873 31.6518 56.7009 31.608C56.6145 31.5642 56.5203 31.5379 56.4237 31.5308L55.4923 31.4667C55.3289 31.4596 55.1668 31.5 55.0257 31.5828C54.8846 31.6656 54.7704 31.7875 54.6969 31.9337Z" fill="#FFC3BD"/>
<path d="M47.0592 36.4263C47.0592 36.4263 47.0746 36.4545 47.0874 36.4725L47.1413 36.552L47.2644 36.7162C47.3517 36.8291 47.4466 36.9395 47.5441 37.0498C47.7391 37.2704 47.9469 37.486 48.1625 37.6938C48.5992 38.1061 49.0723 38.4779 49.5762 38.8048C50.5634 39.4612 51.6797 39.8986 52.8501 40.0876L53.0682 40.1184L53.1785 40.1338C53.1691 40.1329 53.1597 40.1329 53.1503 40.1338C53.0948 40.1384 53.0416 40.1579 52.9963 40.1903C52.9476 40.2365 53.0656 40.1698 53.1785 40.0004C53.4667 39.5325 53.6805 39.0227 53.8123 38.4892C53.9792 37.8679 54.1043 37.2362 54.1869 36.5982C54.2356 36.2749 54.2638 35.9439 54.2921 35.6155C54.3203 35.2871 54.3408 34.9433 54.3408 34.6482L57.2966 34.7894C57.2581 35.1922 57.2196 35.5386 57.1785 35.9106C57.1375 36.2826 57.0785 36.6418 57.0272 37.0062C56.9143 37.74 56.7834 38.4738 56.591 39.2281C56.497 39.6166 56.3814 39.9995 56.2446 40.375C56.0946 40.7987 55.9039 41.2069 55.675 41.5937C55.3673 42.1265 54.9249 42.5689 54.3921 42.8766C54.0345 43.0692 53.6381 43.1788 53.2324 43.1973C53.1375 43.1973 53.0194 43.1973 52.9425 43.1973H52.7911L52.4883 43.1768C51.6808 43.1012 50.8825 42.9473 50.1047 42.7175C49.3347 42.4826 48.5862 42.1822 47.8674 41.8195C47.1559 41.4559 46.4739 41.0372 45.8276 40.5674C45.5018 40.334 45.1862 40.0851 44.8757 39.8234C44.7218 39.6925 44.5704 39.554 44.4165 39.4129L44.1855 39.1948L44.0649 39.0742C44.0213 39.028 43.9931 38.9998 43.9238 38.9228L47.0592 36.4263Z" fill="#407BFF"/>
<path opacity="0.5" d="M47.0592 36.4263C47.0592 36.4263 47.0746 36.4545 47.0874 36.4725L47.1413 36.552L47.2644 36.7162C47.3517 36.8291 47.4466 36.9395 47.5441 37.0498C47.7391 37.2704 47.9469 37.486 48.1625 37.6938C48.5992 38.1061 49.0723 38.4779 49.5762 38.8048C50.5634 39.4612 51.6797 39.8986 52.8501 40.0876L53.0682 40.1184L53.1785 40.1338C53.1691 40.1329 53.1597 40.1329 53.1503 40.1338C53.0948 40.1384 53.0416 40.1579 52.9963 40.1903C52.9476 40.2365 53.0656 40.1698 53.1785 40.0004C53.4667 39.5325 53.6805 39.0227 53.8123 38.4892C53.9792 37.8679 54.1043 37.2362 54.1869 36.5982C54.2356 36.2749 54.2638 35.9439 54.2921 35.6155C54.3203 35.2871 54.3408 34.9433 54.3408 34.6482L57.2966 34.7894C57.2581 35.1922 57.2196 35.5386 57.1785 35.9106C57.1375 36.2826 57.0785 36.6418 57.0272 37.0062C56.9143 37.74 56.7834 38.4738 56.591 39.2281C56.497 39.6166 56.3814 39.9995 56.2446 40.375C56.0946 40.7987 55.9039 41.2069 55.675 41.5937C55.3673 42.1265 54.9249 42.5689 54.3921 42.8766C54.0345 43.0692 53.6381 43.1788 53.2324 43.1973C53.1375 43.1973 53.0194 43.1973 52.9425 43.1973H52.7911L52.4883 43.1768C51.6808 43.1012 50.8825 42.9473 50.1047 42.7175C49.3347 42.4826 48.5862 42.1822 47.8674 41.8195C47.1559 41.4559 46.4739 41.0372 45.8276 40.5674C45.5018 40.334 45.1862 40.0851 44.8757 39.8234C44.7218 39.6925 44.5704 39.554 44.4165 39.4129L44.1855 39.1948L44.0649 39.0742C44.0213 39.028 43.9931 38.9998 43.9238 38.9228L47.0592 36.4263Z" fill="white"/>
<path d="M40.9006 98.4381C40.526 97.6017 40.7851 94.0763 40.8364 93.5041C40.1873 93.1629 37.9551 93.5811 37.9551 93.5811C37.9551 93.5811 38.5786 97.2835 38.2117 98.4381C39.0661 98.9153 40.9006 98.4381 40.9006 98.4381Z" fill="#FFC3BD"/>
<path d="M68.4444 95.0616C67.7414 94.474 66.2635 91.2591 66.0557 90.7177C65.3219 90.6998 63.667 92.0006 63.667 92.0006C63.667 92.0006 65.853 95.0513 66.0249 96.2546C67.0076 96.2957 68.4444 95.0616 68.4444 95.0616Z" fill="#FFC3BD"/>
<path d="M43.1845 100.483C41.3089 100.483 40.9882 100.455 39.9337 100.419C39.0305 100.386 38.815 100.498 38.0889 100.483C37.4834 100.47 37.5065 99.8903 37.6912 99.2207C37.7579 98.9846 37.8503 98.7075 37.9478 98.374C37.984 98.2475 38.0604 98.1363 38.1655 98.0571C38.2706 97.9779 38.3986 97.9351 38.5302 97.9352H40.5828C40.6759 97.9366 40.7675 97.9588 40.8509 98.0001C40.9344 98.0413 41.0076 98.1007 41.0652 98.1738C41.5629 98.7922 42.638 99.2438 43.577 99.3695C44.5931 99.5055 43.9337 100.483 43.1845 100.483Z" fill="#407BFF"/>
<path d="M72.1492 96.4958C70.1299 97.4092 69.0703 96.9448 68.0568 97.1758C67.187 97.3708 67.2152 97.535 66.3506 97.7838C65.7758 97.9455 65.4808 97.3323 65.5321 96.7935C65.5742 96.4015 65.5939 96.0074 65.5911 95.6132C65.5889 95.5374 65.6091 95.4626 65.6493 95.3982C65.6895 95.3338 65.7478 95.2828 65.8169 95.2514L67.8233 94.3406C67.8881 94.3115 67.9597 94.3006 68.0302 94.3092C68.1008 94.3178 68.1676 94.3455 68.2236 94.3893C69.0241 95.0308 70.7893 95.8339 72.0132 95.4156C72.9677 95.1001 72.8214 96.1905 72.1492 96.4958Z" fill="#407BFF"/>
<path d="M49.8787 50.7355C49.8787 50.7355 54.6176 61.6169 57.2168 69.6349C60.4009 76.8909 66.7793 92.1135 66.7793 92.1135C66.9051 92.5009 64.8884 93.2117 64.4522 93.1398C64.4522 93.1398 56.0314 83.041 52.6035 71.5695C43.6875 60.3828 41.0576 51.4026 41.0576 51.4026L49.8787 50.7355Z" fill="#263238"/>
<path opacity="0.2" d="M46.0763 56.6932C47.3849 58.1275 48.306 63.1076 48.7755 66.3584C47.1677 63.9979 45.6968 61.547 44.3701 59.0178C44.501 57.8016 45.0347 56.9062 46.0763 56.6932Z" fill="black"/>
<path d="M47.2379 50.9382C47.2379 50.9382 47.574 66.0531 46.2604 73.4989C44.88 81.3168 40.6157 90.7485 40.9107 95.8801C40.4694 96.1366 38.9248 96.152 38.0602 95.8801C38.0602 95.8801 36.5823 80.642 41.0236 73.2039C40.0615 65.7632 37.5009 56.1134 39.7741 51.5053L47.2379 50.9382Z" fill="#263238"/>
<path d="M41.1267 94.8127C41.1338 95.1652 41.1664 95.5168 41.2242 95.8647C41.2301 95.8936 41.23 95.9234 41.2239 95.9522C41.2178 95.9811 41.2059 96.0084 41.1888 96.0324C41.1717 96.0565 41.1499 96.0768 41.1246 96.0921C41.0994 96.1073 41.0713 96.1173 41.0421 96.1212C39.9978 96.288 38.4763 96.0468 38.0093 95.9621C37.9647 95.9537 37.9237 95.9317 37.892 95.8991C37.8603 95.8665 37.8395 95.8249 37.8323 95.78L37.6758 94.7947C37.6705 94.7629 37.6723 94.7303 37.681 94.6992C37.6898 94.6682 37.7052 94.6394 37.7262 94.6149C37.7473 94.5904 37.7734 94.5709 37.8028 94.5576C37.8322 94.5444 37.8642 94.5377 37.8965 94.5382L40.9112 94.5946C40.9684 94.5959 41.0228 94.6194 41.063 94.6601C41.1033 94.7008 41.1261 94.7555 41.1267 94.8127Z" fill="#263238"/>
<path opacity="0.1" d="M41.1267 94.8127C41.1338 95.1652 41.1664 95.5168 41.2242 95.8647C41.2301 95.8936 41.23 95.9234 41.2239 95.9522C41.2178 95.9811 41.2059 96.0084 41.1888 96.0324C41.1717 96.0565 41.1499 96.0768 41.1246 96.0921C41.0994 96.1073 41.0713 96.1173 41.0421 96.1212C39.9978 96.288 38.4763 96.0468 38.0093 95.9621C37.9647 95.9537 37.9237 95.9317 37.892 95.8991C37.8603 95.8665 37.8395 95.8249 37.8323 95.78L37.6758 94.7947C37.6705 94.7629 37.6723 94.7303 37.681 94.6992C37.6898 94.6682 37.7052 94.6394 37.7262 94.6149C37.7473 94.5904 37.7734 94.5709 37.8028 94.5576C37.8322 94.5444 37.8642 94.5377 37.8965 94.5382L40.9112 94.5946C40.9684 94.5959 41.0228 94.6194 41.063 94.6601C41.1033 94.7008 41.1261 94.7555 41.1267 94.8127Z" fill="white"/>
<path d="M66.5606 91.0025C66.6889 91.2591 66.9224 91.6773 67.1071 91.9929C67.1355 92.0428 67.1434 92.1018 67.129 92.1573C67.1146 92.2129 67.0792 92.2607 67.0302 92.2905C66.2046 92.736 65.3397 93.1045 64.4464 93.3913C64.4015 93.4091 64.3519 93.4114 64.3054 93.3979C64.259 93.3845 64.2183 93.3559 64.1899 93.3168L63.5792 92.5086C63.5596 92.4828 63.5459 92.453 63.5391 92.4212C63.5323 92.3895 63.5326 92.3567 63.5399 92.325C63.5473 92.2934 63.5615 92.2638 63.5816 92.2384C63.6017 92.2129 63.6272 92.1922 63.6562 92.1776L66.2579 90.9102C66.2835 90.8952 66.312 90.8857 66.3416 90.8822C66.3711 90.8788 66.401 90.8815 66.4295 90.8901C66.4579 90.8988 66.4842 90.9133 66.5068 90.9326C66.5294 90.952 66.5477 90.9758 66.5606 91.0025Z" fill="#263238"/>
<path opacity="0.1" d="M66.5606 91.0025C66.6889 91.2591 66.9224 91.6773 67.1071 91.9929C67.1355 92.0428 67.1434 92.1018 67.129 92.1573C67.1146 92.2129 67.0792 92.2607 67.0302 92.2905C66.2046 92.736 65.3397 93.1045 64.4464 93.3913C64.4015 93.4091 64.3519 93.4114 64.3054 93.3979C64.259 93.3845 64.2183 93.3559 64.1899 93.3168L63.5792 92.5086C63.5596 92.4828 63.5459 92.453 63.5391 92.4212C63.5323 92.3895 63.5326 92.3567 63.5399 92.325C63.5473 92.2934 63.5615 92.2638 63.5816 92.2384C63.6017 92.2129 63.6272 92.1922 63.6562 92.1776L66.2579 90.9102C66.2835 90.8952 66.312 90.8857 66.3416 90.8822C66.3711 90.8788 66.401 90.8815 66.4295 90.8901C66.4579 90.8988 66.4842 90.9133 66.5068 90.9326C66.5294 90.952 66.5477 90.9758 66.5606 91.0025Z" fill="white"/>
<path d="M47.8621 37.9273C48.1186 38.892 48.5189 39.9517 49.0064 42.2891C49.4554 44.2519 49.7761 47.7028 49.8787 50.7407C48.5599 51.9158 44.1751 51.7157 39.7748 51.5104C39.762 48.6496 38.5868 46.0094 35.3925 40.1518C35.2132 39.8486 35.104 39.5092 35.0728 39.1583C35.0416 38.8075 35.0892 38.4541 35.2122 38.124C35.3352 37.7939 35.5304 37.4955 35.7835 37.2506C36.0367 37.0057 36.3414 36.8205 36.6754 36.7085C37.0576 36.5802 37.4656 36.452 37.889 36.3339C39.3581 35.8872 40.8567 35.5443 42.3739 35.3076C42.8717 35.2409 43.4002 35.1896 43.8877 35.146C44.7699 35.0767 45.6488 35.3163 46.3738 35.8237C47.0988 36.3311 47.6249 37.0747 47.8621 37.9273Z" fill="#407BFF"/>
<path opacity="0.5" d="M47.8621 37.9273C48.1186 38.892 48.5189 39.9517 49.0064 42.2891C49.4554 44.2519 49.7761 47.7028 49.8787 50.7407C48.5599 51.9158 44.1751 51.7157 39.7748 51.5104C39.762 48.6496 38.5868 46.0094 35.3925 40.1518C35.2132 39.8486 35.104 39.5092 35.0728 39.1583C35.0416 38.8075 35.0892 38.4541 35.2122 38.124C35.3352 37.7939 35.5304 37.4955 35.7835 37.2506C36.0367 37.0057 36.3414 36.8205 36.6754 36.7085C37.0576 36.5802 37.4656 36.452 37.889 36.3339C39.3581 35.8872 40.8567 35.5443 42.3739 35.3076C42.8717 35.2409 43.4002 35.1896 43.8877 35.146C44.7699 35.0767 45.6488 35.3163 46.3738 35.8237C47.0988 36.3311 47.6249 37.0747 47.8621 37.9273Z" fill="white"/>
<path d="M42.6682 35.3051L38.1396 36.2801C38.1396 36.2801 41.8036 37.8195 44.7413 40.1646C45.5419 36.1312 42.6682 35.3051 42.6682 35.3051Z" fill="white"/>
<path d="M37.0596 31.2076C37.778 32.5623 38.8556 35.0972 38.1398 36.2749C38.1398 36.2749 42.227 37.4552 44.4079 39.3307C44.7004 36.298 42.6683 35.3051 42.6683 35.3051C40.9441 35.3051 40.5798 34.0581 40.5233 32.8933L37.0596 31.2076Z" fill="#FFC3BD"/>
<path d="M40.9007 36.6624C39.9671 36.6429 39.0374 36.5338 38.1246 36.3365C38.1163 36.3347 38.1085 36.3312 38.1015 36.3264C38.0946 36.3215 38.0887 36.3153 38.0842 36.3082C38.0796 36.301 38.0766 36.293 38.0751 36.2847C38.0737 36.2763 38.0739 36.2678 38.0758 36.2595C38.0801 36.2432 38.0904 36.229 38.1047 36.22C38.119 36.2109 38.1362 36.2076 38.1528 36.2108C38.1785 36.2108 40.598 36.7522 42.0014 36.4314C42.4505 36.3288 42.7147 36.1749 42.7712 35.9414C42.7862 35.8297 42.7758 35.7161 42.7407 35.609C42.7056 35.5019 42.6467 35.4041 42.5685 35.323C42.5623 35.317 42.5573 35.3099 42.554 35.3019C42.5506 35.294 42.5489 35.2855 42.5489 35.2768C42.5489 35.2682 42.5506 35.2597 42.554 35.2518C42.5573 35.2438 42.5623 35.2366 42.5685 35.2307C42.5805 35.2189 42.5966 35.2123 42.6134 35.2123C42.6302 35.2123 42.6463 35.2189 42.6583 35.2307C42.7528 35.3277 42.8231 35.4456 42.8637 35.5749C42.9042 35.7041 42.9139 35.8411 42.8918 35.9747C42.8097 36.2313 42.5146 36.4391 42.0168 36.552C41.6498 36.6286 41.2756 36.6656 40.9007 36.6624Z" fill="white"/>
<path d="M42.7252 36.6983C42.672 36.7355 42.6067 36.7511 42.5424 36.7421C42.4781 36.733 42.4197 36.7 42.3788 36.6495L42.2377 36.4648C42.2005 36.4116 42.1849 36.3463 42.1939 36.282C42.203 36.2177 42.236 36.1593 42.2865 36.1184C42.3397 36.0812 42.405 36.0656 42.4692 36.0746C42.5335 36.0837 42.592 36.1167 42.6328 36.1672L42.774 36.3545C42.8104 36.4075 42.8256 36.4722 42.8166 36.5359C42.8075 36.5995 42.7749 36.6575 42.7252 36.6983Z" fill="#407BFF"/>
<path opacity="0.2" d="M38.4707 31.8952L40.5233 32.8933C40.5327 33.1669 40.567 33.4392 40.6259 33.7066C39.9845 33.7579 38.9351 33.2884 38.676 32.6803C38.5604 32.4332 38.4909 32.1672 38.4707 31.8952Z" fill="black"/>
<path d="M34.9922 29.1524C36.0493 31.3435 36.447 32.2903 38.0711 33.0421C40.5009 34.1736 42.9845 32.5597 42.6099 30.1376C42.2738 27.9567 40.6061 24.7495 38.0223 24.6187C37.4675 24.5717 36.9103 24.6742 36.4086 24.9157C35.9069 25.1571 35.4791 25.5287 35.1697 25.9916C34.8603 26.4545 34.6807 26.9918 34.6494 27.5477C34.6182 28.1036 34.7366 28.6577 34.9922 29.1524Z" fill="#FFC3BD"/>
<path d="M35.9207 25.9708C37.0676 27.6001 37.0085 30.2736 35.6641 30.6354C33.6115 30.3172 33.165 29.7861 33.165 29.7861C33.165 29.7861 33.8219 24.7598 35.9207 25.9708Z" fill="#263238"/>
<path d="M34.3037 26.6405C37.3364 27.0279 39.7508 25.7604 40.205 25.0497C37.4596 23.1947 34.6039 24.7726 34.3037 26.6405Z" fill="#263238"/>
<path d="M40.6367 27.8875C40.9887 28.2577 41.3861 28.5819 41.8195 28.8522C41.6707 29.1678 41.2037 29.2114 41.2037 29.2114L40.6367 27.8875Z" fill="#ED847E"/>
<path d="M40.4901 30.2223C40.6008 30.2037 40.7098 30.1763 40.816 30.1402C40.8232 30.1377 40.8298 30.1337 40.8353 30.1285C40.8408 30.1233 40.8452 30.1169 40.8481 30.1099C40.851 30.1029 40.8524 30.0953 40.8522 30.0877C40.8519 30.0801 40.8501 30.0726 40.8468 30.0658C40.8405 30.0509 40.8288 30.0389 40.8141 30.0322C40.7993 30.0256 40.7826 30.0247 40.7672 30.0299C40.5275 30.1145 40.2719 30.1441 40.0192 30.1165C39.7665 30.089 39.5232 30.005 39.3073 29.8708C39.2963 29.8601 39.2816 29.8542 39.2663 29.8542C39.251 29.8542 39.2362 29.8601 39.2252 29.8708C39.217 29.8839 39.214 29.8996 39.2169 29.9149C39.2197 29.9301 39.2282 29.9436 39.2406 29.9529C39.6094 30.1942 40.0547 30.2902 40.4901 30.2223Z" fill="#263238"/>
<path d="M35.128 31.4051C35.3276 31.5242 35.5499 31.6 35.7806 31.6279C36.0112 31.6557 36.2452 31.6349 36.4674 31.5668C37.0113 31.3769 36.8522 30.7149 36.3391 30.2839C35.8798 29.9042 35.0408 29.5475 34.6713 29.9657C34.3019 30.3839 34.579 31.0998 35.128 31.4051Z" fill="#FFC3BD"/>
<path d="M36.0949 31.5385C35.9467 31.5385 35.8019 31.5825 35.6787 31.6648C35.5555 31.7471 35.4594 31.8641 35.4027 32.001C35.346 32.1379 35.3312 32.2886 35.3601 32.4339C35.389 32.5792 35.4604 32.7127 35.5651 32.8175C35.6699 32.9223 35.8034 32.9936 35.9487 33.0225C36.0941 33.0514 36.2447 33.0366 36.3816 32.9799C36.5185 32.9232 36.6355 32.8272 36.7178 32.704C36.8002 32.5808 36.8441 32.4359 36.8441 32.2877C36.8444 32.1893 36.8253 32.0917 36.7878 32.0006C36.7502 31.9096 36.6951 31.8268 36.6254 31.7572C36.5558 31.6876 36.4731 31.6324 36.382 31.5949C36.291 31.5573 36.1934 31.5382 36.0949 31.5385ZM36.0949 32.8599C35.9811 32.8599 35.8699 32.8261 35.7753 32.7629C35.6808 32.6996 35.6071 32.6097 35.5637 32.5045C35.5203 32.3993 35.509 32.2837 35.5314 32.1721C35.5538 32.0605 35.6088 31.9581 35.6894 31.8779C35.7701 31.7976 35.8727 31.7431 35.9844 31.7212C36.096 31.6993 36.2117 31.711 36.3166 31.7549C36.4216 31.7988 36.5112 31.8729 36.574 31.9677C36.6369 32.0626 36.6701 32.174 36.6696 32.2877C36.6696 32.3631 36.6548 32.4377 36.6258 32.5073C36.5969 32.5769 36.5546 32.6401 36.5011 32.6932C36.4477 32.7464 36.3844 32.7885 36.3147 32.8171C36.2449 32.8457 36.1703 32.8602 36.0949 32.8599Z" fill="white"/>
<path d="M37.766 27.7155C37.7793 27.7077 37.7906 27.697 37.7991 27.6841C37.8076 27.6712 37.8129 27.6565 37.8148 27.6411C37.8322 27.4973 37.8852 27.36 37.9689 27.2417C38.0527 27.1235 38.1646 27.0279 38.2945 26.9638C38.3086 26.958 38.3212 26.9494 38.3317 26.9385C38.3423 26.9275 38.3504 26.9146 38.3557 26.9004C38.361 26.8862 38.3633 26.871 38.3625 26.8559C38.3617 26.8408 38.3578 26.826 38.351 26.8124C38.3366 26.7839 38.3119 26.7619 38.2819 26.7509C38.2518 26.7399 38.2187 26.7408 38.1894 26.7534C38.0234 26.8307 37.8797 26.949 37.772 27.0972C37.6643 27.2453 37.596 27.4183 37.5736 27.6001C37.5719 27.6233 37.5767 27.6465 37.5874 27.6671C37.5981 27.6878 37.6143 27.705 37.6343 27.717C37.6542 27.729 37.6771 27.7352 37.7003 27.7349C37.7236 27.7347 37.7463 27.728 37.766 27.7155Z" fill="#263238"/>
<path d="M41.409 26.3557C41.4241 26.3551 41.4389 26.3511 41.4522 26.344C41.4655 26.3369 41.4771 26.3269 41.486 26.3146C41.504 26.2891 41.5111 26.2575 41.5058 26.2267C41.5005 26.1959 41.4832 26.1685 41.4577 26.1504C41.3099 26.027 41.1353 25.9395 40.9479 25.895C40.7604 25.8505 40.5652 25.8501 40.3776 25.8939C40.3631 25.8984 40.3497 25.9059 40.3383 25.9159C40.3269 25.9259 40.3178 25.9382 40.3115 25.9521C40.3052 25.9659 40.3019 25.9808 40.3018 25.996C40.3017 26.0112 40.3048 26.0262 40.3109 26.0401C40.3224 26.0697 40.3446 26.094 40.373 26.1082C40.4014 26.1225 40.4342 26.1256 40.4648 26.1171C40.6132 26.0831 40.7675 26.0837 40.9156 26.1188C41.0638 26.154 41.2019 26.2227 41.3192 26.3198C41.3303 26.3323 41.3443 26.3421 41.3598 26.3484C41.3754 26.3546 41.3923 26.3571 41.409 26.3557Z" fill="#263238"/>
<path d="M41.3727 27.2229C41.4369 27.4128 41.3907 27.6001 41.265 27.6437C41.1392 27.6873 40.9853 27.5642 40.9186 27.3743C40.8519 27.1844 40.9006 26.9946 41.0263 26.9535C41.1521 26.9125 41.3086 27.0433 41.3727 27.2229Z" fill="#263238"/>
<path d="M39.1481 28.1389C39.2148 28.3288 39.1661 28.5161 39.0404 28.5597C38.9146 28.6033 38.7607 28.4802 38.694 28.3031C38.6273 28.1261 38.676 27.9234 38.8017 27.8823C38.9275 27.8413 39.0814 27.9465 39.1481 28.1389Z" fill="#263238"/>
<path d="M38.6943 27.9798L38.9047 27.5283C38.9047 27.5283 39.0253 27.9593 38.6943 27.9798Z" fill="#263238"/>
<path d="M40.9033 27.0921L41.1137 26.6405C41.1137 26.6405 41.2343 27.069 40.9033 27.0921Z" fill="#263238"/>
<path opacity="0.5" d="M38.23 40.4238L36.0029 41.2602C36.9189 42.9587 37.645 44.3648 38.2018 45.5861C38.0661 43.8676 38.0755 42.1407 38.23 40.4238Z" fill="#407BFF"/>
<path d="M52.1701 100.483H55.0977L55.0977 58.2994H52.1701L52.1701 100.483Z" fill="#407BFF"/>
<path opacity="0.2" d="M52.1719 58.302H55.0994V65.3963L52.1719 64.6419V58.302Z" fill="black"/>
<path d="M69.2881 63.5541H43.1738V58.6637C43.1738 56.8863 43.8799 55.1817 45.1367 53.9249C46.3935 52.668 48.0981 51.962 49.8756 51.962H62.5863C64.3637 51.962 66.0684 52.668 67.3252 53.9249C68.582 55.1817 69.2881 56.8863 69.2881 58.6637V63.5541Z" fill="#407BFF"/>
<path d="M45.1011 55.5386L44.6675 54.9203C44.5869 54.8057 44.4801 54.712 44.3561 54.6469C44.2321 54.5817 44.0943 54.547 43.9542 54.5457H42.6251C42.3637 54.5434 42.1054 54.6037 41.872 54.7215C41.6386 54.8394 41.4367 55.0113 41.2833 55.223L41.0908 55.4796C41.74 56.5572 43.2332 57.2397 43.2332 57.2397L43.6386 57.4835C43.7201 57.5357 43.8111 57.5712 43.9064 57.5878C44.0018 57.6045 44.0994 57.602 44.1938 57.5805C44.2881 57.559 44.3772 57.5189 44.4559 57.4626C44.5346 57.4063 44.6013 57.3349 44.6521 57.2526L45.1422 56.4597C45.225 56.3187 45.2653 56.1566 45.258 55.9931C45.2507 55.8296 45.1962 55.6718 45.1011 55.5386Z" fill="#FFC3BD"/>
<path d="M39.0511 39.79C38.9844 39.9311 38.8972 40.1364 38.8227 40.3032L38.5944 40.8728C38.4456 41.2551 38.3045 41.6425 38.1762 42.0299C37.9205 42.7989 37.709 43.5819 37.5424 44.375C37.4655 44.765 37.4013 45.1448 37.3526 45.5347C37.3117 45.9054 37.2894 46.2779 37.2859 46.6508C37.2659 47.2808 37.3769 47.9081 37.6117 48.4931L37.7092 48.6983C37.7163 48.715 37.7223 48.7322 37.7272 48.7496C37.8912 49.2603 38.1439 49.738 38.4738 50.1608C38.8566 50.6744 39.2768 51.1589 39.731 51.6105C40.2031 52.0723 40.7086 52.5213 41.232 52.9523C41.4886 53.1679 41.7657 53.3757 42.0376 53.5784C42.3096 53.7811 42.597 53.9864 42.851 54.1531L41.3962 56.4623C41.0473 56.2442 40.7522 56.0441 40.4366 55.8311C40.121 55.6182 39.8234 55.4001 39.5206 55.1769C38.9151 54.7355 38.3224 54.266 37.7451 53.758C37.1455 53.2432 36.5847 52.6849 36.0671 52.0877C35.7869 51.764 35.5297 51.421 35.2974 51.0614C35.0383 50.6685 34.8208 50.2497 34.6483 49.8119L34.7637 50.0684C34.2156 49.0667 33.8983 47.9552 33.8349 46.8151C33.7701 45.8157 33.7976 44.8125 33.917 43.8183C34.0293 42.8691 34.1937 41.9269 34.4096 40.9959C34.5123 40.5358 34.6269 40.0774 34.7535 39.6207C34.815 39.3923 34.8792 39.1665 34.9485 38.9382C35.0177 38.7098 35.0844 38.4943 35.1794 38.2223L39.0511 39.79Z" fill="#407BFF"/>
<path opacity="0.5" d="M39.0511 39.79C38.9844 39.9311 38.8972 40.1364 38.8227 40.3032L38.5944 40.8728C38.4456 41.2551 38.3045 41.6425 38.1762 42.0299C37.9205 42.7989 37.709 43.5819 37.5424 44.375C37.4655 44.765 37.4013 45.1448 37.3526 45.5347C37.3117 45.9054 37.2894 46.2779 37.2859 46.6508C37.2659 47.2808 37.3769 47.9081 37.6117 48.4931L37.7092 48.6983C37.7163 48.715 37.7223 48.7322 37.7272 48.7496C37.8912 49.2603 38.1439 49.738 38.4738 50.1608C38.8566 50.6744 39.2768 51.1589 39.731 51.6105C40.2031 52.0723 40.7086 52.5213 41.232 52.9523C41.4886 53.1679 41.7657 53.3757 42.0376 53.5784C42.3096 53.7811 42.597 53.9864 42.851 54.1531L41.3962 56.4623C41.0473 56.2442 40.7522 56.0441 40.4366 55.8311C40.121 55.6182 39.8234 55.4001 39.5206 55.1769C38.9151 54.7355 38.3224 54.266 37.7451 53.758C37.1455 53.2432 36.5847 52.6849 36.0671 52.0877C35.7869 51.764 35.5297 51.421 35.2974 51.0614C35.0383 50.6685 34.8208 50.2497 34.6483 49.8119L34.7637 50.0684C34.2156 49.0667 33.8983 47.9552 33.8349 46.8151C33.7701 45.8157 33.7976 44.8125 33.917 43.8183C34.0293 42.8691 34.1937 41.9269 34.4096 40.9959C34.5123 40.5358 34.6269 40.0774 34.7535 39.6207C34.815 39.3923 34.8792 39.1665 34.9485 38.9382C35.0177 38.7098 35.0844 38.4943 35.1794 38.2223L39.0511 39.79Z" fill="white"/>
<path opacity="0.1" d="M43.174 62.1044H55.8848V58.8741H43.174V62.1044Z" fill="white"/>
<path opacity="0.2" d="M55.8848 63.5541V58.6637C55.8848 56.8863 56.5908 55.1817 57.8477 53.9249C59.1045 52.668 60.8091 51.962 62.5865 51.962C64.3639 51.962 66.0686 52.668 67.3254 53.9249C68.5822 55.1817 69.2883 56.8863 69.2883 58.6637V63.5541" fill="black"/>
<path d="M55.8846 64.4136H74.2246V63.5541H55.8846V64.4136Z" fill="#407BFF"/>
<path opacity="0.2" d="M60.8211 64.4136H74.2246V63.5541H60.8211V64.4136Z" fill="black"/>
<path d="M53.6376 60.0441H54.1123V48.7214H53.6376V60.0441Z" fill="#E0E0E0"/>
<path d="M50.9326 50.9203H54.2527V49.2936C54.2527 49.2364 54.23 49.1816 54.1896 49.1412C54.1492 49.1008 54.0943 49.0781 54.0372 49.0781H50.9326L51.4766 49.9992L50.9326 50.9203Z" fill="#407BFF"/>
<path d="M84.3068 16.3518C84.278 16.3514 84.2502 16.3413 84.2279 16.3231C84.2055 16.305 84.1899 16.2798 84.1836 16.2518C84.1794 16.2354 84.1786 16.2184 84.1811 16.2017C84.1837 16.185 84.1895 16.169 84.1984 16.1546C84.2073 16.1403 84.2189 16.1278 84.2327 16.1181C84.2465 16.1083 84.262 16.1014 84.2785 16.0978C84.5632 16.0328 84.8428 15.947 85.115 15.8412C85.1306 15.835 85.1474 15.8319 85.1642 15.8322C85.1811 15.8324 85.1977 15.8359 85.2132 15.8426C85.2287 15.8493 85.2427 15.8589 85.2545 15.871C85.2663 15.8831 85.2755 15.8974 85.2817 15.9131C85.288 15.9287 85.2911 15.9455 85.2908 15.9623C85.2906 15.9792 85.287 15.9959 85.2804 16.0113C85.2737 16.0268 85.264 16.0408 85.2519 16.0526C85.2399 16.0644 85.2256 16.0736 85.2099 16.0798C84.9265 16.1932 84.6348 16.285 84.3376 16.3544L84.3068 16.3518Z" fill="#407BFF"/>
<path d="M74.6643 60.6753C74.6314 60.6747 74.5998 60.6617 74.5761 60.6389C74.5523 60.616 74.538 60.585 74.536 60.5521C74.5354 60.5353 74.538 60.5185 74.5438 60.5026C74.5496 60.4868 74.5585 60.4723 74.57 60.4599C74.5814 60.4475 74.5952 60.4375 74.6105 60.4304C74.6258 60.4234 74.6424 60.4194 74.6592 60.4187C75.2519 60.3879 75.8574 60.334 76.4552 60.2545C76.4888 60.2508 76.5225 60.2602 76.5492 60.2808C76.576 60.3013 76.5938 60.3315 76.5989 60.3648C76.6014 60.3816 76.6006 60.3986 76.5963 60.415C76.5921 60.4314 76.5846 60.4467 76.5743 60.4601C76.564 60.4736 76.5511 60.4848 76.5364 60.4931C76.5216 60.5014 76.5054 60.5066 76.4886 60.5085C75.8831 60.5906 75.2698 60.6445 74.6695 60.6727L74.6643 60.6753ZM78.2564 60.2006C78.2224 60.2044 78.1883 60.1944 78.1615 60.173C78.1348 60.1516 78.1177 60.1205 78.114 60.0864C78.1103 60.0524 78.1202 60.0183 78.1416 59.9916C78.163 59.9649 78.1941 59.9478 78.2282 59.944C78.8311 59.8132 79.4187 59.6592 79.9729 59.4848C79.9893 59.478 80.007 59.4747 80.0248 59.475C80.0425 59.4754 80.06 59.4795 80.0762 59.487C80.0923 59.4945 80.1067 59.5053 80.1184 59.5187C80.1301 59.5321 80.1389 59.5477 80.1443 59.5647C80.1497 59.5816 80.1514 59.5995 80.1495 59.6172C80.1476 59.6349 80.142 59.652 80.1331 59.6674C80.1242 59.6828 80.1122 59.6962 80.0979 59.7067C80.0836 59.7172 80.0672 59.7247 80.0499 59.7285C79.488 59.9056 78.8953 60.0621 78.2821 60.1955L78.2564 60.2006ZM81.7073 59.0922C81.683 59.0924 81.659 59.0854 81.6385 59.0722C81.618 59.059 81.6018 59.0401 81.5919 59.0178C81.5845 59.0025 81.5803 58.9859 81.5794 58.9689C81.5785 58.952 81.581 58.935 81.5867 58.919C81.5925 58.903 81.6013 58.8883 81.6128 58.8758C81.6242 58.8632 81.638 58.8531 81.6535 58.8459C82.0884 58.6516 82.5079 58.4243 82.9081 58.166L83.2134 57.9607C83.2417 57.9422 83.2762 57.9355 83.3093 57.9422C83.3425 57.949 83.3717 57.9685 83.3905 57.9966C83.4001 58.0104 83.4069 58.0259 83.4105 58.0423C83.414 58.0587 83.4143 58.0757 83.4112 58.0922C83.408 58.1087 83.4017 58.1244 83.3924 58.1384C83.3831 58.1524 83.3711 58.1644 83.3571 58.1737L83.0492 58.3789C82.6401 58.6449 82.2112 58.879 81.7663 59.0794C81.7502 59.0869 81.7328 59.0913 81.715 59.0922H81.7073ZM84.7272 57.0935C84.7089 57.0933 84.6907 57.0894 84.6739 57.0819C84.6572 57.0744 84.6421 57.0635 84.6297 57.0499C84.6077 57.0238 84.5967 56.9902 84.5991 56.9562C84.6015 56.9222 84.6171 56.8904 84.6426 56.8677C85.0971 56.4755 85.5185 56.0464 85.9023 55.5848C85.9247 55.559 85.9563 55.5429 85.9903 55.54C86.0243 55.5372 86.0582 55.5477 86.0845 55.5694C86.0975 55.5801 86.1083 55.5932 86.1161 55.6081C86.1239 55.623 86.1287 55.6392 86.1301 55.656C86.1316 55.6727 86.1297 55.6896 86.1245 55.7056C86.1193 55.7216 86.1109 55.7363 86.0999 55.749C85.7079 56.2179 85.2789 56.6547 84.817 57.055C84.7954 57.0776 84.7661 57.0913 84.7349 57.0935H84.7272ZM87.0082 54.2968C86.9875 54.2969 86.9672 54.2916 86.9492 54.2814C86.919 54.266 86.8961 54.2393 86.8855 54.2071C86.8749 54.1749 86.8775 54.1398 86.8927 54.1095C86.9765 53.9487 87.0535 53.7845 87.1237 53.6169C87.2822 53.234 87.4108 52.8394 87.5085 52.4366C87.5126 52.4198 87.5199 52.4039 87.5301 52.3899C87.5402 52.3759 87.5531 52.364 87.5679 52.3549C87.5826 52.3459 87.599 52.3398 87.6162 52.3371C87.6333 52.3344 87.6507 52.3351 87.6676 52.3391C87.6844 52.3432 87.7003 52.3505 87.7143 52.3607C87.7284 52.3709 87.7402 52.3837 87.7493 52.3985C87.7583 52.4133 87.7644 52.4297 87.7671 52.4468C87.7698 52.4639 87.7691 52.4814 87.7651 52.4982C87.6651 52.9144 87.5321 53.3219 87.3674 53.717C87.2956 53.8889 87.216 54.0582 87.1288 54.2301C87.1179 54.2505 87.1016 54.2676 87.0817 54.2793C87.0618 54.2911 87.039 54.2972 87.0159 54.2968H87.0082ZM87.8985 50.8023C87.8814 50.8013 87.8647 50.7969 87.8493 50.7894C87.834 50.7818 87.8202 50.7713 87.809 50.7584C87.7978 50.7455 87.7892 50.7305 87.7839 50.7142C87.7786 50.6979 87.7765 50.6808 87.7779 50.6637C87.801 50.3148 87.8138 49.9453 87.8138 49.5373C87.8138 49.3115 87.8138 49.0883 87.8138 48.8625C87.8132 48.8455 87.8159 48.8285 87.8219 48.8125C87.8278 48.7965 87.837 48.7818 87.8487 48.7694C87.8604 48.757 87.8744 48.747 87.8901 48.7401C87.9057 48.7332 87.9225 48.7295 87.9396 48.7291C87.9565 48.7284 87.9734 48.7312 87.9893 48.7372C88.0051 48.7432 88.0196 48.7523 88.0318 48.7641C88.044 48.7758 88.0537 48.7899 88.0604 48.8055C88.067 48.8211 88.0704 48.8379 88.0704 48.8548C88.0704 49.0832 88.0704 49.309 88.0704 49.5373C88.0704 49.953 88.0576 50.3276 88.0345 50.6817C88.0325 50.7143 88.0182 50.745 87.9943 50.7674C87.9705 50.7899 87.9389 50.8023 87.9062 50.8023H87.8985ZM87.8498 47.1717C87.817 47.1718 87.7855 47.1593 87.7617 47.1369C87.7378 47.1145 87.7234 47.0838 87.7215 47.0511C87.6984 46.538 87.6753 45.9684 87.6753 45.409V45.2269C87.6741 45.2098 87.6766 45.1927 87.6827 45.1768C87.6888 45.1608 87.6982 45.1464 87.7104 45.1344C87.7226 45.1224 87.7373 45.1133 87.7533 45.1075C87.7694 45.1018 87.7866 45.0996 87.8036 45.1011C87.8376 45.1011 87.8702 45.1147 87.8943 45.1387C87.9184 45.1628 87.9319 45.1954 87.9319 45.2294V45.409C87.9319 45.9632 87.955 46.52 87.9781 47.0383C87.9787 47.0551 87.9761 47.072 87.9703 47.0878C87.9645 47.1036 87.9556 47.1181 87.9441 47.1305C87.9327 47.1429 87.9189 47.1529 87.9036 47.16C87.8883 47.1671 87.8717 47.171 87.8549 47.1717H87.8498ZM98.8184 45.5912C98.5849 45.5912 98.3565 45.5912 98.1385 45.5758C98.1216 45.5751 98.105 45.5712 98.0897 45.5641C98.0744 45.557 98.0606 45.547 98.0492 45.5346C98.0378 45.5222 98.0289 45.5077 98.0231 45.4919C98.0172 45.4761 98.0146 45.4592 98.0153 45.4424C98.016 45.4255 98.0199 45.409 98.027 45.3937C98.0341 45.3783 98.0441 45.3646 98.0565 45.3531C98.0689 45.3417 98.0834 45.3328 98.0992 45.327C98.115 45.3212 98.1319 45.3185 98.1487 45.3192C98.3642 45.3192 98.59 45.3346 98.8184 45.3346C99.1946 45.3365 99.5706 45.3177 99.9447 45.2782C99.9788 45.2744 100.013 45.2844 100.04 45.3058C100.066 45.3272 100.083 45.3583 100.087 45.3924C100.091 45.4264 100.081 45.4605 100.06 45.4872C100.038 45.5139 100.007 45.531 99.973 45.5348C99.5919 45.5739 99.2091 45.5928 98.8261 45.5912H98.8184ZM96.3322 45.4603C95.7318 45.4142 95.1211 45.3603 94.5207 45.2987C94.5039 45.2971 94.4875 45.2922 94.4725 45.2842C94.4575 45.2762 94.4443 45.2653 94.4336 45.2522C94.4228 45.2391 94.4148 45.224 94.41 45.2077C94.4051 45.1915 94.4035 45.1744 94.4053 45.1576C94.4069 45.1407 94.4118 45.1243 94.4198 45.1094C94.4278 45.0944 94.4386 45.0812 94.4518 45.0704C94.4649 45.0597 94.48 45.0517 94.4962 45.0468C94.5125 45.0419 94.5295 45.0404 94.5464 45.0421C95.1442 45.1037 95.7523 45.1601 96.3424 45.2063C96.3764 45.2063 96.4091 45.2199 96.4331 45.2439C96.4572 45.268 96.4707 45.3006 96.4707 45.3346C96.4707 45.3686 96.4572 45.4013 96.4331 45.4253C96.4091 45.4494 96.3764 45.4629 96.3424 45.4629L96.3322 45.4603ZM101.72 45.0934C101.696 45.0931 101.672 45.086 101.651 45.0729C101.63 45.0598 101.613 45.0411 101.602 45.019C101.588 44.9881 101.587 44.9529 101.599 44.9211C101.611 44.8894 101.635 44.8637 101.666 44.8497C102.204 44.6217 102.66 44.235 102.972 43.7413C102.98 43.7254 102.991 43.7114 103.005 43.7C103.019 43.6887 103.035 43.6803 103.052 43.6754C103.069 43.6705 103.087 43.6693 103.104 43.6717C103.122 43.6741 103.139 43.6801 103.154 43.6893C103.169 43.6986 103.182 43.7109 103.192 43.7255C103.202 43.7401 103.209 43.7566 103.213 43.774C103.216 43.7914 103.216 43.8094 103.212 43.8267C103.208 43.8441 103.201 43.8604 103.19 43.8747C102.853 44.4126 102.358 44.8343 101.774 45.0832C101.757 45.0903 101.739 45.0938 101.72 45.0934ZM92.7273 45.0934H92.7119C92.1141 45.0165 91.506 44.9292 90.9158 44.8369C90.8992 44.8344 90.8831 44.8286 90.8687 44.8199C90.8542 44.8112 90.8416 44.7997 90.8316 44.7861C90.8216 44.7725 90.8144 44.7571 90.8103 44.7407C90.8063 44.7243 90.8055 44.7073 90.8081 44.6906C90.8138 44.6572 90.8322 44.6273 90.8595 44.6072C90.8867 44.5871 90.9207 44.5784 90.9543 44.5829C91.5496 44.6752 92.1525 44.7625 92.7504 44.8394C92.7844 44.8415 92.8162 44.8569 92.8388 44.8825C92.8614 44.908 92.873 44.9414 92.8709 44.9754C92.8689 45.0094 92.8534 45.0413 92.8279 45.0639C92.8024 45.0865 92.769 45.098 92.735 45.096L92.7273 45.0934ZM89.1352 44.5367H89.1121C88.5194 44.4289 87.919 44.3109 87.3289 44.1877C87.2949 44.1809 87.265 44.1609 87.2457 44.132C87.2265 44.1031 87.2195 44.0678 87.2263 44.0338C87.2331 43.9998 87.2531 43.9698 87.282 43.9506C87.3109 43.9313 87.3462 43.9243 87.3802 43.9312C87.9704 44.0543 88.5682 44.1723 89.1583 44.2801C89.175 44.2829 89.191 44.289 89.2054 44.298C89.2197 44.307 89.2321 44.3187 89.2419 44.3326C89.2517 44.3464 89.2586 44.3621 89.2623 44.3786C89.266 44.3951 89.2664 44.4122 89.2635 44.4289C89.2571 44.4577 89.2413 44.4834 89.2185 44.5021C89.1956 44.5207 89.1672 44.5311 89.1378 44.5315L89.1352 44.5367ZM85.5816 43.7926H85.5508C84.9658 43.6541 84.3706 43.5052 83.7882 43.3513C83.7713 43.3471 83.7555 43.3396 83.7415 43.3293C83.7276 43.3189 83.7158 43.3059 83.7069 43.291C83.6979 43.2761 83.692 43.2596 83.6894 43.2425C83.6869 43.2253 83.6877 43.2078 83.6919 43.1909C83.6962 43.1741 83.7037 43.1582 83.714 43.1443C83.7243 43.1303 83.7373 43.1185 83.7522 43.1096C83.7671 43.1007 83.7836 43.0948 83.8008 43.0922C83.8179 43.0897 83.8355 43.0905 83.8523 43.0947C84.4347 43.2487 85.0249 43.3975 85.6099 43.5335C85.6431 43.542 85.6718 43.563 85.69 43.5922C85.7082 43.6213 85.7144 43.6564 85.7074 43.69C85.7005 43.7176 85.6847 43.7421 85.6624 43.7598C85.6402 43.7774 85.6126 43.7872 85.5842 43.7875L85.5816 43.7926ZM87.937 43.5514H87.9165C87.8831 43.5457 87.8532 43.5273 87.8331 43.5C87.813 43.4728 87.8042 43.4388 87.8087 43.4052C87.8986 42.7951 88.0508 42.1959 88.2628 41.6168C88.2744 41.5849 88.2982 41.5588 88.329 41.5444C88.3598 41.5299 88.3951 41.5283 88.4271 41.5399C88.459 41.5514 88.4851 41.5752 88.4995 41.606C88.514 41.6368 88.5156 41.6721 88.504 41.7041C88.2996 42.2658 88.1534 42.847 88.0678 43.4385C88.0629 43.4689 88.0473 43.4965 88.0237 43.5162C88.0002 43.536 87.9703 43.5467 87.9396 43.5463L87.937 43.5514ZM82.0691 42.8664C82.0572 42.8687 82.045 42.8687 82.0332 42.8664C81.4559 42.6996 80.8683 42.52 80.2936 42.3353C80.2774 42.3303 80.2624 42.3222 80.2494 42.3113C80.2364 42.3004 80.2258 42.287 80.2181 42.2719C80.2105 42.2568 80.2059 42.2403 80.2048 42.2234C80.2036 42.2065 80.2059 42.1896 80.2115 42.1736C80.2221 42.1413 80.245 42.1145 80.2753 42.0991C80.3056 42.0837 80.3408 42.081 80.3731 42.0915C80.9453 42.2737 81.5277 42.4533 82.105 42.6201C82.1377 42.6296 82.1652 42.6517 82.1816 42.6815C82.198 42.7114 82.2018 42.7465 82.1923 42.7791C82.1832 42.8037 82.1667 42.8247 82.1451 42.8395C82.1235 42.8542 82.0978 42.8618 82.0717 42.8612L82.0691 42.8664ZM103.444 42.207C103.415 42.2064 103.386 42.1956 103.363 42.1765C103.34 42.1574 103.325 42.131 103.319 42.1018C103.18 41.5361 102.861 41.0309 102.41 40.6624C102.398 40.6507 102.389 40.6367 102.383 40.6213C102.376 40.6059 102.373 40.5893 102.373 40.5726C102.373 40.5558 102.376 40.5393 102.383 40.5239C102.389 40.5085 102.398 40.4945 102.41 40.4828C102.422 40.4708 102.437 40.4612 102.452 40.4547C102.468 40.4482 102.485 40.4448 102.502 40.4448C102.518 40.4448 102.535 40.4482 102.551 40.4547C102.566 40.4612 102.581 40.4708 102.593 40.4828C103.086 40.8874 103.433 41.4426 103.58 42.0633C103.584 42.0798 103.584 42.0968 103.581 42.1133C103.577 42.1299 103.571 42.1456 103.562 42.1597C103.552 42.1738 103.54 42.1858 103.527 42.1953C103.513 42.2047 103.497 42.2113 103.48 42.2147L103.444 42.207ZM78.613 41.758C78.5986 41.7606 78.5838 41.7606 78.5694 41.758C77.9844 41.5501 77.4123 41.3346 76.8632 41.1191C76.832 41.106 76.807 41.0813 76.7936 41.0502C76.7802 41.0191 76.7794 40.984 76.7913 40.9523C76.7976 40.9366 76.8068 40.9223 76.8186 40.9102C76.8303 40.8981 76.8443 40.8885 76.8598 40.8818C76.8753 40.8751 76.892 40.8716 76.9088 40.8713C76.9257 40.8711 76.9425 40.8742 76.9581 40.8805C77.5021 41.096 78.0742 41.3089 78.6541 41.5168C78.6859 41.5279 78.7121 41.551 78.727 41.5813C78.7419 41.6115 78.7443 41.6464 78.7336 41.6784C78.7232 41.7009 78.7066 41.7199 78.6856 41.7331C78.6647 41.7463 78.6404 41.7531 78.6156 41.7528L78.613 41.758ZM75.2365 40.4161C75.2196 40.4198 75.2021 40.4198 75.1852 40.4161C74.6207 40.1595 74.0665 39.9029 73.5405 39.6335C73.5242 39.6267 73.5095 39.6167 73.4973 39.6039C73.4851 39.5912 73.4756 39.5761 73.4695 39.5596C73.4634 39.543 73.4608 39.5254 73.4618 39.5078C73.4628 39.4902 73.4674 39.4729 73.4754 39.4572C73.4833 39.4414 73.4944 39.4275 73.508 39.4163C73.5216 39.405 73.5374 39.3967 73.5543 39.3918C73.5713 39.3869 73.5891 39.3856 73.6066 39.3879C73.624 39.3902 73.6409 39.3961 73.656 39.4052C74.1691 39.6617 74.7285 39.9183 75.2904 40.1749C75.3244 40.182 75.3542 40.2024 75.3732 40.2315C75.3922 40.2606 75.3989 40.2961 75.3917 40.3301C75.3846 40.3641 75.3642 40.3939 75.3351 40.4129C75.306 40.4319 75.2705 40.4386 75.2365 40.4315V40.4161ZM89.225 40.1928C89.1977 40.1928 89.1709 40.1847 89.148 40.1698C89.1208 40.1493 89.1028 40.1189 89.098 40.0853C89.0932 40.0516 89.102 40.0174 89.1224 39.9902C89.4579 39.5297 89.8701 39.1304 90.3411 38.8099L90.4745 38.7252C90.4889 38.7163 90.5048 38.7103 90.5214 38.7075C90.5381 38.7047 90.5551 38.7053 90.5716 38.7091C90.588 38.7129 90.6035 38.7199 90.6173 38.7297C90.631 38.7395 90.6426 38.752 90.6516 38.7663C90.6605 38.7806 90.6665 38.7965 90.6693 38.8132C90.6721 38.8298 90.6715 38.8469 90.6677 38.8633C90.6639 38.8797 90.6569 38.8953 90.6471 38.909C90.6373 38.9227 90.6248 38.9344 90.6105 38.9433L90.4848 39.0229C90.038 39.3269 89.6466 39.7053 89.3276 40.1415C89.3153 40.156 89.3 40.1677 89.2827 40.1757C89.2654 40.1836 89.2466 40.1878 89.2276 40.1877L89.225 40.1928ZM100.994 39.6797C100.973 39.6795 100.952 39.6742 100.933 39.6643C100.717 39.5488 100.507 39.4411 100.307 39.341C99.9807 39.1819 99.6446 39.0331 99.3059 38.8997C99.289 38.8946 99.2733 38.886 99.2599 38.8746C99.2465 38.8631 99.2356 38.849 99.2278 38.8331C99.2201 38.8173 99.2157 38.8 99.215 38.7823C99.2143 38.7647 99.2172 38.7471 99.2235 38.7306C99.2299 38.7142 99.2396 38.6992 99.252 38.6867C99.2645 38.6741 99.2793 38.6643 99.2957 38.6578C99.3121 38.6512 99.3297 38.6482 99.3473 38.6487C99.365 38.6493 99.3823 38.6535 99.3982 38.6611C99.7446 38.7945 100.088 38.9484 100.425 39.1127C100.625 39.2127 100.84 39.3205 101.058 39.4385C101.088 39.4553 101.11 39.4828 101.119 39.5154C101.129 39.5479 101.125 39.5829 101.11 39.613C101.098 39.6325 101.081 39.6485 101.062 39.6593C101.042 39.6701 101.019 39.6754 100.997 39.6746L100.994 39.6797ZM72.0011 38.7688C71.9784 38.7693 71.9561 38.763 71.9369 38.7509C71.4007 38.4404 70.8798 38.1171 70.3975 37.7862C70.3726 37.7661 70.3561 37.7375 70.3512 37.7059C70.3463 37.6743 70.3534 37.642 70.371 37.6154C70.3887 37.5887 70.4156 37.5697 70.4466 37.5618C70.4776 37.554 70.5104 37.5581 70.5386 37.5732C71.0261 37.8991 71.5418 38.2223 72.078 38.5302C72.1021 38.5445 72.1209 38.5663 72.1314 38.5922C72.142 38.6182 72.1438 38.6468 72.1365 38.6739C72.1292 38.7009 72.1133 38.7248 72.0912 38.742C72.069 38.7591 72.0419 38.7686 72.0139 38.7688H72.0011ZM97.6202 38.366H97.5894C97.0059 38.2276 96.4135 38.1299 95.8164 38.0735C95.7828 38.0703 95.7519 38.0539 95.7303 38.028C95.7086 38.002 95.6981 37.9686 95.701 37.935C95.7049 37.9012 95.7218 37.8702 95.7481 37.8486C95.7745 37.8271 95.8082 37.8166 95.8421 37.8195C96.447 37.8768 97.0471 37.9763 97.6381 38.1171C97.6722 38.1209 97.7033 38.138 97.7247 38.1647C97.7461 38.1914 97.756 38.2255 97.7523 38.2595C97.7486 38.2936 97.7315 38.3247 97.7048 38.3461C97.678 38.3675 97.6439 38.3775 97.6099 38.3737L97.6202 38.366ZM92.2193 38.2839C92.1902 38.2836 92.162 38.2736 92.1392 38.2555C92.1165 38.2373 92.1004 38.2121 92.0935 38.1839C92.0858 38.1509 92.0915 38.1161 92.1092 38.0873C92.127 38.0585 92.1555 38.0378 92.1885 38.0299C92.6391 37.9234 93.0971 37.8505 93.5586 37.8118C93.7074 37.8118 93.8588 37.7887 94.0076 37.781C94.0246 37.7792 94.0418 37.781 94.0581 37.7862C94.0743 37.7915 94.0893 37.8 94.1021 37.8114C94.1149 37.8227 94.1252 37.8366 94.1323 37.8521C94.1395 37.8677 94.1433 37.8845 94.1436 37.9016C94.145 37.9352 94.1331 37.968 94.1106 37.993C94.088 38.018 94.0566 38.0331 94.023 38.035C93.8742 38.035 93.7279 38.0556 93.5817 38.0684C93.1332 38.1056 92.6881 38.1759 92.25 38.2788L92.2193 38.2839ZM68.9914 36.7445C68.9628 36.745 68.9348 36.736 68.9119 36.7188C68.4244 36.3365 67.9574 35.9363 67.5238 35.5334C67.5118 35.5215 67.5023 35.5073 67.4957 35.4917C67.4892 35.476 67.4859 35.4593 67.4859 35.4423C67.4859 35.4254 67.4892 35.4086 67.4957 35.393C67.5023 35.3774 67.5118 35.3632 67.5238 35.3513C67.5482 35.3276 67.5809 35.3144 67.6149 35.3144C67.6489 35.3144 67.6816 35.3276 67.706 35.3513C68.1345 35.7515 68.5963 36.1466 69.0787 36.5238C69.1051 36.545 69.1221 36.5757 69.1259 36.6094C69.1298 36.643 69.1202 36.6768 69.0992 36.7034C69.0855 36.7168 69.0688 36.7267 69.0505 36.7325C69.0323 36.7383 69.0129 36.7398 68.994 36.7368L68.9914 36.7445ZM66.3436 34.2685C66.3252 34.2683 66.307 34.2644 66.2903 34.2569C66.2735 34.2494 66.2584 34.2385 66.2461 34.2249C65.8429 33.7665 65.4668 33.2851 65.1197 32.7829C65.1005 32.7549 65.093 32.7204 65.0987 32.6869C65.1044 32.6534 65.123 32.6234 65.1505 32.6033C65.1791 32.585 65.2135 32.5783 65.2469 32.5845C65.2803 32.5906 65.31 32.6093 65.3301 32.6367C65.6765 33.1289 66.0517 33.6001 66.4539 34.0479C66.4774 34.0718 66.4906 34.1041 66.4906 34.1377C66.4906 34.1712 66.4774 34.2035 66.4539 34.2275C66.4397 34.2409 66.4226 34.2508 66.4039 34.2566C66.3852 34.2624 66.3655 34.2638 66.3461 34.2608L66.3436 34.2685ZM64.291 31.2845C64.2673 31.2844 64.2441 31.2776 64.2242 31.2649C64.2042 31.2522 64.1882 31.2341 64.1781 31.2127C63.8968 30.6703 63.6541 30.1087 63.452 29.5321C63.4412 29.4998 63.4435 29.4645 63.4584 29.4339C63.4732 29.4032 63.4995 29.3795 63.5315 29.3679C63.5635 29.3573 63.5984 29.3596 63.6286 29.3745C63.6589 29.3894 63.6821 29.4156 63.6931 29.4474C63.8915 30.0136 64.1299 30.5649 64.4064 31.0972C64.4216 31.1275 64.4243 31.1626 64.4137 31.1948C64.4031 31.227 64.3802 31.2538 64.35 31.2691C64.3313 31.2767 64.311 31.2794 64.291 31.2768V31.2845ZM63.1184 27.8567C63.088 27.857 63.0584 27.8462 63.0353 27.8264C63.0122 27.8066 62.997 27.7791 62.9927 27.7489C62.967 27.6129 62.9465 27.4769 62.926 27.3384C62.8633 26.8861 62.8316 26.43 62.8311 25.9734V25.9195C62.8311 25.8855 62.8446 25.8529 62.8686 25.8288C62.8927 25.8048 62.9253 25.7912 62.9593 25.7912C62.9934 25.7912 63.026 25.8048 63.0501 25.8288C63.0741 25.8529 63.0876 25.8855 63.0876 25.9195V25.9708C63.0873 26.4155 63.1181 26.8596 63.18 27.2999C63.2005 27.4359 63.2211 27.5693 63.2441 27.7027C63.2501 27.7361 63.2427 27.7704 63.2235 27.7983C63.2043 27.8262 63.1748 27.8453 63.1415 27.8515L63.1184 27.8567ZM63.1312 24.2441H63.1082C63.0749 24.2379 63.0454 24.2187 63.0262 24.1908C63.007 24.163 62.9995 24.1286 63.0055 24.0953C63.1171 23.4926 63.2793 22.9003 63.4905 22.3249C63.5031 22.2932 63.5275 22.2675 63.5585 22.2532C63.5895 22.2388 63.6249 22.237 63.6572 22.2479C63.6887 22.26 63.7142 22.284 63.7281 22.3148C63.7421 22.3455 63.7433 22.3805 63.7316 22.4121C63.5242 22.9739 63.3654 23.5525 63.257 24.1415C63.2513 24.173 63.2338 24.2012 63.2081 24.2203C63.1823 24.2393 63.1502 24.2479 63.1184 24.2441H63.1312ZM64.3833 20.8547C64.3609 20.8536 64.339 20.8474 64.3192 20.8368C64.2899 20.8191 64.2687 20.7907 64.26 20.7577C64.2514 20.7246 64.256 20.6894 64.273 20.6597C64.5815 20.1296 64.9379 19.6289 65.3378 19.1639C65.361 19.1429 65.3912 19.1312 65.4225 19.1309C65.4538 19.1306 65.4841 19.1417 65.5077 19.1622C65.5314 19.1827 65.5467 19.2112 65.5509 19.2422C65.555 19.2732 65.5477 19.3047 65.5302 19.3307C65.1458 19.7861 64.8024 20.2747 64.5039 20.7906C64.4914 20.8128 64.4724 20.8308 64.4496 20.8423C64.4267 20.8537 64.401 20.858 64.3756 20.8547H64.3833ZM66.7464 18.1222C66.7199 18.122 66.6941 18.1137 66.6725 18.0983C66.651 18.0829 66.6347 18.0611 66.626 18.0361C66.6173 18.0111 66.6165 17.984 66.6238 17.9585C66.6312 17.933 66.6462 17.9104 66.6669 17.8938C67.1517 17.5174 67.6715 17.1884 68.2191 16.9112C68.2498 16.8958 68.2852 16.8933 68.3177 16.9042C68.3502 16.915 68.377 16.9383 68.3923 16.9689C68.4076 16.9995 68.4102 17.035 68.3993 17.0674C68.3885 17.0999 68.3652 17.1268 68.3346 17.1421C67.802 17.412 67.296 17.7316 66.8234 18.0965C66.7992 18.1151 66.7691 18.1242 66.7387 18.1222H66.7464ZM82.5053 16.5237C81.8943 16.5103 81.2849 16.4563 80.681 16.3621C80.647 16.3573 80.6163 16.3392 80.5956 16.3118C80.5749 16.2844 80.5659 16.2499 80.5707 16.2158C80.5755 16.1818 80.5936 16.1511 80.621 16.1304C80.6484 16.1097 80.6829 16.1007 80.717 16.1055C81.3114 16.199 81.9114 16.2521 82.513 16.2646C82.547 16.2646 82.5796 16.2781 82.6037 16.3022C82.6278 16.3262 82.6413 16.3588 82.6413 16.3929C82.6413 16.4269 82.6278 16.4595 82.6037 16.4836C82.5796 16.5076 82.547 16.5212 82.513 16.5212L82.5053 16.5237ZM69.9485 16.457C69.9316 16.4597 69.9144 16.4591 69.8978 16.4551C69.8812 16.4511 69.8656 16.444 69.8517 16.434C69.8379 16.4239 69.8262 16.4113 69.8173 16.3968C69.8083 16.3823 69.8024 16.3661 69.7997 16.3493C69.797 16.3324 69.7976 16.3152 69.8016 16.2986C69.8055 16.282 69.8127 16.2663 69.8227 16.2525C69.8327 16.2387 69.8454 16.227 69.8599 16.2181C69.8744 16.2091 69.8906 16.2031 69.9074 16.2004C70.488 16.012 71.0791 15.8578 71.6778 15.7386C71.6945 15.7353 71.7117 15.7353 71.7284 15.7386C71.745 15.742 71.7609 15.7487 71.775 15.7582C71.7891 15.7678 71.8011 15.78 71.8104 15.7943C71.8197 15.8085 71.8261 15.8245 71.8292 15.8412C71.8329 15.8576 71.8332 15.8746 71.8301 15.8911C71.8271 15.9076 71.8206 15.9233 71.8113 15.9373C71.8019 15.9512 71.7898 15.9631 71.7756 15.9721C71.7615 15.9812 71.7457 15.9873 71.7291 15.99C71.1402 16.1079 70.5585 16.2595 69.987 16.4442L69.9485 16.457ZM78.9081 16.0542H78.885C78.3334 15.9516 77.7099 15.8361 77.089 15.7489C77.0558 15.7438 77.0259 15.7259 77.0058 15.699C76.9856 15.6722 76.9768 15.6385 76.9812 15.6052C76.9831 15.5884 76.9883 15.5721 76.9967 15.5574C77.005 15.5427 77.0162 15.5298 77.0296 15.5195C77.043 15.5092 77.0584 15.5017 77.0747 15.4974C77.0911 15.4932 77.1082 15.4923 77.1249 15.4949C77.7407 15.5821 78.3667 15.7001 78.9209 15.8027C78.9542 15.809 78.9837 15.8281 79.0029 15.856C79.0221 15.8839 79.0295 15.9182 79.0236 15.9516C79.0192 15.9801 79.0055 16.0064 78.9846 16.0264C78.9637 16.0463 78.9368 16.0588 78.9081 16.0619V16.0542ZM73.4995 15.7232C73.4655 15.7253 73.432 15.7137 73.4065 15.6911C73.381 15.6685 73.3655 15.6366 73.3635 15.6026C73.3614 15.5686 73.373 15.5352 73.3956 15.5097C73.4182 15.4841 73.4501 15.4687 73.4841 15.4666C73.8099 15.4307 74.1589 15.3974 74.5104 15.3691C74.7362 15.3512 74.9748 15.3409 75.2185 15.3409H75.3032C75.32 15.3412 75.3367 15.3449 75.3521 15.3517C75.3675 15.3584 75.3815 15.3681 75.3932 15.3803C75.4049 15.3924 75.414 15.4068 75.4202 15.4225C75.4263 15.4382 75.4293 15.4549 75.4289 15.4718C75.427 15.5049 75.4128 15.5362 75.3891 15.5594C75.3654 15.5827 75.3338 15.5963 75.3006 15.5975H75.2185C74.9825 15.5975 74.7516 15.5975 74.5283 15.6231C74.1743 15.6514 73.8305 15.6847 73.502 15.7232H73.4995Z" fill="#407BFF"/>
<path d="M72.8224 60.6804C72.5171 60.6676 72.2143 60.6445 71.9218 60.6163C71.9051 60.615 71.8887 60.6104 71.8738 60.6027C71.8588 60.595 71.8456 60.5843 71.8348 60.5714C71.824 60.5585 71.816 60.5435 71.8111 60.5275C71.8062 60.5114 71.8046 60.4945 71.8064 60.4777C71.8073 60.4608 71.8117 60.4443 71.8193 60.4292C71.8269 60.4141 71.8375 60.4007 71.8505 60.3898C71.8635 60.379 71.8786 60.371 71.8948 60.3662C71.9111 60.3615 71.9281 60.3601 71.9449 60.3623C72.2348 60.3905 72.5325 60.411 72.8352 60.4239C72.8693 60.4239 72.9019 60.4374 72.9259 60.4614C72.95 60.4855 72.9635 60.5181 72.9635 60.5521C72.9635 60.5862 72.95 60.6188 72.9259 60.6429C72.9019 60.6669 72.8693 60.6804 72.8352 60.6804H72.8224Z" fill="#407BFF"/>
<g opacity="0.6">
<path d="M84.3068 16.3518C84.278 16.3514 84.2502 16.3413 84.2279 16.3231C84.2055 16.305 84.1899 16.2798 84.1836 16.2518C84.1794 16.2354 84.1786 16.2184 84.1811 16.2017C84.1837 16.185 84.1895 16.169 84.1984 16.1546C84.2073 16.1403 84.2189 16.1278 84.2327 16.1181C84.2465 16.1083 84.262 16.1014 84.2785 16.0978C84.5632 16.0328 84.8428 15.947 85.115 15.8412C85.1306 15.835 85.1474 15.8319 85.1642 15.8322C85.1811 15.8324 85.1977 15.8359 85.2132 15.8426C85.2287 15.8493 85.2427 15.8589 85.2545 15.871C85.2663 15.8831 85.2755 15.8974 85.2817 15.9131C85.288 15.9287 85.2911 15.9455 85.2908 15.9623C85.2906 15.9792 85.287 15.9959 85.2804 16.0113C85.2737 16.0268 85.264 16.0408 85.2519 16.0526C85.2399 16.0644 85.2256 16.0736 85.2099 16.0798C84.9265 16.1932 84.6348 16.285 84.3376 16.3544L84.3068 16.3518Z" fill="white"/>
<path d="M74.6643 60.6753C74.6314 60.6747 74.5998 60.6617 74.5761 60.6389C74.5523 60.616 74.538 60.585 74.536 60.5521C74.5354 60.5353 74.538 60.5185 74.5438 60.5026C74.5496 60.4868 74.5585 60.4723 74.57 60.4599C74.5814 60.4475 74.5952 60.4375 74.6105 60.4304C74.6258 60.4234 74.6424 60.4194 74.6592 60.4187C75.2519 60.3879 75.8574 60.334 76.4552 60.2545C76.4888 60.2508 76.5225 60.2602 76.5492 60.2808C76.576 60.3013 76.5938 60.3315 76.5989 60.3648C76.6014 60.3816 76.6006 60.3986 76.5963 60.415C76.5921 60.4314 76.5846 60.4467 76.5743 60.4601C76.564 60.4736 76.5511 60.4848 76.5364 60.4931C76.5216 60.5014 76.5054 60.5066 76.4886 60.5085C75.8831 60.5906 75.2698 60.6445 74.6695 60.6727L74.6643 60.6753ZM78.2564 60.2006C78.2224 60.2044 78.1883 60.1944 78.1615 60.173C78.1348 60.1516 78.1177 60.1205 78.114 60.0864C78.1103 60.0524 78.1202 60.0183 78.1416 59.9916C78.163 59.9649 78.1941 59.9478 78.2282 59.944C78.8311 59.8132 79.4187 59.6592 79.9729 59.4848C79.9893 59.478 80.007 59.4747 80.0248 59.475C80.0425 59.4754 80.06 59.4795 80.0762 59.487C80.0923 59.4945 80.1067 59.5053 80.1184 59.5187C80.1301 59.5321 80.1389 59.5477 80.1443 59.5647C80.1497 59.5816 80.1514 59.5995 80.1495 59.6172C80.1476 59.6349 80.142 59.652 80.1331 59.6674C80.1242 59.6828 80.1122 59.6962 80.0979 59.7067C80.0836 59.7172 80.0672 59.7247 80.0499 59.7285C79.488 59.9056 78.8953 60.0621 78.2821 60.1955L78.2564 60.2006ZM81.7073 59.0922C81.683 59.0924 81.659 59.0854 81.6385 59.0722C81.618 59.059 81.6018 59.0401 81.5919 59.0178C81.5845 59.0025 81.5803 58.9859 81.5794 58.9689C81.5785 58.952 81.581 58.935 81.5867 58.919C81.5925 58.903 81.6013 58.8883 81.6128 58.8758C81.6242 58.8632 81.638 58.8531 81.6535 58.8459C82.0884 58.6516 82.5079 58.4243 82.9081 58.166L83.2134 57.9607C83.2417 57.9422 83.2762 57.9355 83.3093 57.9422C83.3425 57.949 83.3717 57.9685 83.3905 57.9966C83.4001 58.0104 83.4069 58.0259 83.4105 58.0423C83.414 58.0587 83.4143 58.0757 83.4112 58.0922C83.408 58.1087 83.4017 58.1244 83.3924 58.1384C83.3831 58.1524 83.3711 58.1644 83.3571 58.1737L83.0492 58.3789C82.6401 58.6449 82.2112 58.879 81.7663 59.0794C81.7502 59.0869 81.7328 59.0913 81.715 59.0922H81.7073ZM84.7272 57.0935C84.7089 57.0933 84.6907 57.0894 84.6739 57.0819C84.6572 57.0744 84.6421 57.0635 84.6297 57.0499C84.6077 57.0238 84.5967 56.9902 84.5991 56.9562C84.6015 56.9222 84.6171 56.8904 84.6426 56.8677C85.0971 56.4755 85.5185 56.0464 85.9023 55.5848C85.9247 55.559 85.9563 55.5429 85.9903 55.54C86.0243 55.5372 86.0582 55.5477 86.0845 55.5694C86.0975 55.5801 86.1083 55.5932 86.1161 55.6081C86.1239 55.623 86.1287 55.6392 86.1301 55.656C86.1316 55.6727 86.1297 55.6896 86.1245 55.7056C86.1193 55.7216 86.1109 55.7363 86.0999 55.749C85.7079 56.2179 85.2789 56.6547 84.817 57.055C84.7954 57.0776 84.7661 57.0913 84.7349 57.0935H84.7272ZM87.0082 54.2968C86.9875 54.2969 86.9672 54.2916 86.9492 54.2814C86.919 54.266 86.8961 54.2393 86.8855 54.2071C86.8749 54.1749 86.8775 54.1398 86.8927 54.1095C86.9765 53.9487 87.0535 53.7845 87.1237 53.6169C87.2822 53.234 87.4108 52.8394 87.5085 52.4366C87.5126 52.4198 87.5199 52.4039 87.5301 52.3899C87.5402 52.3759 87.5531 52.364 87.5679 52.3549C87.5826 52.3459 87.599 52.3398 87.6162 52.3371C87.6333 52.3344 87.6507 52.3351 87.6676 52.3391C87.6844 52.3432 87.7003 52.3505 87.7143 52.3607C87.7284 52.3709 87.7402 52.3837 87.7493 52.3985C87.7583 52.4133 87.7644 52.4297 87.7671 52.4468C87.7698 52.4639 87.7691 52.4814 87.7651 52.4982C87.6651 52.9144 87.5321 53.3219 87.3674 53.717C87.2956 53.8889 87.216 54.0582 87.1288 54.2301C87.1179 54.2505 87.1016 54.2676 87.0817 54.2793C87.0618 54.2911 87.039 54.2972 87.0159 54.2968H87.0082ZM87.8985 50.8023C87.8814 50.8013 87.8647 50.7969 87.8493 50.7894C87.834 50.7818 87.8202 50.7713 87.809 50.7584C87.7978 50.7455 87.7892 50.7305 87.7839 50.7142C87.7786 50.6979 87.7765 50.6808 87.7779 50.6637C87.801 50.3148 87.8138 49.9453 87.8138 49.5373C87.8138 49.3115 87.8138 49.0883 87.8138 48.8625C87.8132 48.8455 87.8159 48.8285 87.8219 48.8125C87.8278 48.7965 87.837 48.7818 87.8487 48.7694C87.8604 48.757 87.8744 48.747 87.8901 48.7401C87.9057 48.7332 87.9225 48.7295 87.9396 48.7291C87.9565 48.7284 87.9734 48.7312 87.9893 48.7372C88.0051 48.7432 88.0196 48.7523 88.0318 48.7641C88.044 48.7758 88.0537 48.7899 88.0604 48.8055C88.067 48.8211 88.0704 48.8379 88.0704 48.8548C88.0704 49.0832 88.0704 49.309 88.0704 49.5373C88.0704 49.953 88.0576 50.3276 88.0345 50.6817C88.0325 50.7143 88.0182 50.745 87.9943 50.7674C87.9705 50.7899 87.9389 50.8023 87.9062 50.8023H87.8985ZM87.8498 47.1717C87.817 47.1718 87.7855 47.1593 87.7617 47.1369C87.7378 47.1145 87.7234 47.0838 87.7215 47.0511C87.6984 46.538 87.6753 45.9684 87.6753 45.409V45.2269C87.6741 45.2098 87.6766 45.1927 87.6827 45.1768C87.6888 45.1608 87.6982 45.1464 87.7104 45.1344C87.7226 45.1224 87.7373 45.1133 87.7533 45.1075C87.7694 45.1018 87.7866 45.0996 87.8036 45.1011C87.8376 45.1011 87.8702 45.1147 87.8943 45.1387C87.9184 45.1628 87.9319 45.1954 87.9319 45.2294V45.409C87.9319 45.9632 87.955 46.52 87.9781 47.0383C87.9787 47.0551 87.9761 47.072 87.9703 47.0878C87.9645 47.1036 87.9556 47.1181 87.9441 47.1305C87.9327 47.1429 87.9189 47.1529 87.9036 47.16C87.8883 47.1671 87.8717 47.171 87.8549 47.1717H87.8498ZM98.8184 45.5912C98.5849 45.5912 98.3565 45.5912 98.1385 45.5758C98.1216 45.5751 98.105 45.5712 98.0897 45.5641C98.0744 45.557 98.0606 45.547 98.0492 45.5346C98.0378 45.5222 98.0289 45.5077 98.0231 45.4919C98.0172 45.4761 98.0146 45.4592 98.0153 45.4424C98.016 45.4255 98.0199 45.409 98.027 45.3937C98.0341 45.3783 98.0441 45.3646 98.0565 45.3531C98.0689 45.3417 98.0834 45.3328 98.0992 45.327C98.115 45.3212 98.1319 45.3185 98.1487 45.3192C98.3642 45.3192 98.59 45.3346 98.8184 45.3346C99.1946 45.3365 99.5706 45.3177 99.9447 45.2782C99.9788 45.2744 100.013 45.2844 100.04 45.3058C100.066 45.3272 100.083 45.3583 100.087 45.3924C100.091 45.4264 100.081 45.4605 100.06 45.4872C100.038 45.5139 100.007 45.531 99.973 45.5348C99.5919 45.5739 99.2091 45.5928 98.8261 45.5912H98.8184ZM96.3322 45.4603C95.7318 45.4142 95.1211 45.3603 94.5207 45.2987C94.5039 45.2971 94.4875 45.2922 94.4725 45.2842C94.4575 45.2762 94.4443 45.2653 94.4336 45.2522C94.4228 45.2391 94.4148 45.224 94.41 45.2077C94.4051 45.1915 94.4035 45.1744 94.4053 45.1576C94.4069 45.1407 94.4118 45.1243 94.4198 45.1094C94.4278 45.0944 94.4386 45.0812 94.4518 45.0704C94.4649 45.0597 94.48 45.0517 94.4962 45.0468C94.5125 45.0419 94.5295 45.0404 94.5464 45.0421C95.1442 45.1037 95.7523 45.1601 96.3424 45.2063C96.3764 45.2063 96.4091 45.2199 96.4331 45.2439C96.4572 45.268 96.4707 45.3006 96.4707 45.3346C96.4707 45.3686 96.4572 45.4013 96.4331 45.4253C96.4091 45.4494 96.3764 45.4629 96.3424 45.4629L96.3322 45.4603ZM101.72 45.0934C101.696 45.0931 101.672 45.086 101.651 45.0729C101.63 45.0598 101.613 45.0411 101.602 45.019C101.588 44.9881 101.587 44.9529 101.599 44.9211C101.611 44.8894 101.635 44.8637 101.666 44.8497C102.204 44.6217 102.66 44.235 102.972 43.7413C102.98 43.7254 102.991 43.7114 103.005 43.7C103.019 43.6887 103.035 43.6803 103.052 43.6754C103.069 43.6705 103.087 43.6693 103.104 43.6717C103.122 43.6741 103.139 43.6801 103.154 43.6893C103.169 43.6986 103.182 43.7109 103.192 43.7255C103.202 43.7401 103.209 43.7566 103.213 43.774C103.216 43.7914 103.216 43.8094 103.212 43.8267C103.208 43.8441 103.201 43.8604 103.19 43.8747C102.853 44.4126 102.358 44.8343 101.774 45.0832C101.757 45.0903 101.739 45.0938 101.72 45.0934ZM92.7273 45.0934H92.7119C92.1141 45.0165 91.506 44.9292 90.9158 44.8369C90.8992 44.8344 90.8831 44.8286 90.8687 44.8199C90.8542 44.8112 90.8416 44.7997 90.8316 44.7861C90.8216 44.7725 90.8144 44.7571 90.8103 44.7407C90.8063 44.7243 90.8055 44.7073 90.8081 44.6906C90.8138 44.6572 90.8322 44.6273 90.8595 44.6072C90.8867 44.5871 90.9207 44.5784 90.9543 44.5829C91.5496 44.6752 92.1525 44.7625 92.7504 44.8394C92.7844 44.8415 92.8162 44.8569 92.8388 44.8825C92.8614 44.908 92.873 44.9414 92.8709 44.9754C92.8689 45.0094 92.8534 45.0413 92.8279 45.0639C92.8024 45.0865 92.769 45.098 92.735 45.096L92.7273 45.0934ZM89.1352 44.5367H89.1121C88.5194 44.4289 87.919 44.3109 87.3289 44.1877C87.2949 44.1809 87.265 44.1609 87.2457 44.132C87.2265 44.1031 87.2195 44.0678 87.2263 44.0338C87.2331 43.9998 87.2531 43.9698 87.282 43.9506C87.3109 43.9313 87.3462 43.9243 87.3802 43.9312C87.9704 44.0543 88.5682 44.1723 89.1583 44.2801C89.175 44.2829 89.191 44.289 89.2054 44.298C89.2197 44.307 89.2321 44.3187 89.2419 44.3326C89.2517 44.3464 89.2586 44.3621 89.2623 44.3786C89.266 44.3951 89.2664 44.4122 89.2635 44.4289C89.2571 44.4577 89.2413 44.4834 89.2185 44.5021C89.1956 44.5207 89.1672 44.5311 89.1378 44.5315L89.1352 44.5367ZM85.5816 43.7926H85.5508C84.9658 43.6541 84.3706 43.5052 83.7882 43.3513C83.7713 43.3471 83.7555 43.3396 83.7415 43.3293C83.7276 43.3189 83.7158 43.3059 83.7069 43.291C83.6979 43.2761 83.692 43.2596 83.6894 43.2425C83.6869 43.2253 83.6877 43.2078 83.6919 43.1909C83.6962 43.1741 83.7037 43.1582 83.714 43.1443C83.7243 43.1303 83.7373 43.1185 83.7522 43.1096C83.7671 43.1007 83.7836 43.0948 83.8008 43.0922C83.8179 43.0897 83.8355 43.0905 83.8523 43.0947C84.4347 43.2487 85.0249 43.3975 85.6099 43.5335C85.6431 43.542 85.6718 43.563 85.69 43.5922C85.7082 43.6213 85.7144 43.6564 85.7074 43.69C85.7005 43.7176 85.6847 43.7421 85.6624 43.7598C85.6402 43.7774 85.6126 43.7872 85.5842 43.7875L85.5816 43.7926ZM87.937 43.5514H87.9165C87.8831 43.5457 87.8532 43.5273 87.8331 43.5C87.813 43.4728 87.8042 43.4388 87.8087 43.4052C87.8986 42.7951 88.0508 42.1959 88.2628 41.6168C88.2744 41.5849 88.2982 41.5588 88.329 41.5444C88.3598 41.5299 88.3951 41.5283 88.4271 41.5399C88.459 41.5514 88.4851 41.5752 88.4995 41.606C88.514 41.6368 88.5156 41.6721 88.504 41.7041C88.2996 42.2658 88.1534 42.847 88.0678 43.4385C88.0629 43.4689 88.0473 43.4965 88.0237 43.5162C88.0002 43.536 87.9703 43.5467 87.9396 43.5463L87.937 43.5514ZM82.0691 42.8664C82.0572 42.8687 82.045 42.8687 82.0332 42.8664C81.4559 42.6996 80.8683 42.52 80.2936 42.3353C80.2774 42.3303 80.2624 42.3222 80.2494 42.3113C80.2364 42.3004 80.2258 42.287 80.2181 42.2719C80.2105 42.2568 80.2059 42.2403 80.2048 42.2234C80.2036 42.2065 80.2059 42.1896 80.2115 42.1736C80.2221 42.1413 80.245 42.1145 80.2753 42.0991C80.3056 42.0837 80.3408 42.081 80.3731 42.0915C80.9453 42.2737 81.5277 42.4533 82.105 42.6201C82.1377 42.6296 82.1652 42.6517 82.1816 42.6815C82.198 42.7114 82.2018 42.7465 82.1923 42.7791C82.1832 42.8037 82.1667 42.8247 82.1451 42.8395C82.1235 42.8542 82.0978 42.8618 82.0717 42.8612L82.0691 42.8664ZM103.444 42.207C103.415 42.2064 103.386 42.1956 103.363 42.1765C103.34 42.1574 103.325 42.131 103.319 42.1018C103.18 41.5361 102.861 41.0309 102.41 40.6624C102.398 40.6507 102.389 40.6367 102.383 40.6213C102.376 40.6059 102.373 40.5893 102.373 40.5726C102.373 40.5558 102.376 40.5393 102.383 40.5239C102.389 40.5085 102.398 40.4945 102.41 40.4828C102.422 40.4708 102.437 40.4612 102.452 40.4547C102.468 40.4482 102.485 40.4448 102.502 40.4448C102.518 40.4448 102.535 40.4482 102.551 40.4547C102.566 40.4612 102.581 40.4708 102.593 40.4828C103.086 40.8874 103.433 41.4426 103.58 42.0633C103.584 42.0798 103.584 42.0968 103.581 42.1133C103.577 42.1299 103.571 42.1456 103.562 42.1597C103.552 42.1738 103.54 42.1858 103.527 42.1953C103.513 42.2047 103.497 42.2113 103.48 42.2147L103.444 42.207ZM78.613 41.758C78.5986 41.7606 78.5838 41.7606 78.5694 41.758C77.9844 41.5501 77.4123 41.3346 76.8632 41.1191C76.832 41.106 76.807 41.0813 76.7936 41.0502C76.7802 41.0191 76.7794 40.984 76.7913 40.9523C76.7976 40.9366 76.8068 40.9223 76.8186 40.9102C76.8303 40.8981 76.8443 40.8885 76.8598 40.8818C76.8753 40.8751 76.892 40.8716 76.9088 40.8713C76.9257 40.8711 76.9425 40.8742 76.9581 40.8805C77.5021 41.096 78.0742 41.3089 78.6541 41.5168C78.6859 41.5279 78.7121 41.551 78.727 41.5813C78.7419 41.6115 78.7443 41.6464 78.7336 41.6784C78.7232 41.7009 78.7066 41.7199 78.6856 41.7331C78.6647 41.7463 78.6404 41.7531 78.6156 41.7528L78.613 41.758ZM75.2365 40.4161C75.2196 40.4198 75.2021 40.4198 75.1852 40.4161C74.6207 40.1595 74.0665 39.9029 73.5405 39.6335C73.5242 39.6267 73.5095 39.6167 73.4973 39.6039C73.4851 39.5912 73.4756 39.5761 73.4695 39.5596C73.4634 39.543 73.4608 39.5254 73.4618 39.5078C73.4628 39.4902 73.4674 39.4729 73.4754 39.4572C73.4833 39.4414 73.4944 39.4275 73.508 39.4163C73.5216 39.405 73.5374 39.3967 73.5543 39.3918C73.5713 39.3869 73.5891 39.3856 73.6066 39.3879C73.624 39.3902 73.6409 39.3961 73.656 39.4052C74.1691 39.6617 74.7285 39.9183 75.2904 40.1749C75.3244 40.182 75.3542 40.2024 75.3732 40.2315C75.3922 40.2606 75.3989 40.2961 75.3917 40.3301C75.3846 40.3641 75.3642 40.3939 75.3351 40.4129C75.306 40.4319 75.2705 40.4386 75.2365 40.4315V40.4161ZM89.225 40.1928C89.1977 40.1928 89.1709 40.1847 89.148 40.1698C89.1208 40.1493 89.1028 40.1189 89.098 40.0853C89.0932 40.0516 89.102 40.0174 89.1224 39.9902C89.4579 39.5297 89.8701 39.1304 90.3411 38.8099L90.4745 38.7252C90.4889 38.7163 90.5048 38.7103 90.5214 38.7075C90.5381 38.7047 90.5551 38.7053 90.5716 38.7091C90.588 38.7129 90.6035 38.7199 90.6173 38.7297C90.631 38.7395 90.6426 38.752 90.6516 38.7663C90.6605 38.7806 90.6665 38.7965 90.6693 38.8132C90.6721 38.8298 90.6715 38.8469 90.6677 38.8633C90.6639 38.8797 90.6569 38.8953 90.6471 38.909C90.6373 38.9227 90.6248 38.9344 90.6105 38.9433L90.4848 39.0229C90.038 39.3269 89.6466 39.7053 89.3276 40.1415C89.3153 40.156 89.3 40.1677 89.2827 40.1757C89.2654 40.1836 89.2466 40.1878 89.2276 40.1877L89.225 40.1928ZM100.994 39.6797C100.973 39.6795 100.952 39.6742 100.933 39.6643C100.717 39.5488 100.507 39.4411 100.307 39.341C99.9807 39.1819 99.6446 39.0331 99.3059 38.8997C99.289 38.8946 99.2733 38.886 99.2599 38.8746C99.2465 38.8631 99.2356 38.849 99.2278 38.8331C99.2201 38.8173 99.2157 38.8 99.215 38.7823C99.2143 38.7647 99.2172 38.7471 99.2235 38.7306C99.2299 38.7142 99.2396 38.6992 99.252 38.6867C99.2645 38.6741 99.2793 38.6643 99.2957 38.6578C99.3121 38.6512 99.3297 38.6482 99.3473 38.6487C99.365 38.6493 99.3823 38.6535 99.3982 38.6611C99.7446 38.7945 100.088 38.9484 100.425 39.1127C100.625 39.2127 100.84 39.3205 101.058 39.4385C101.088 39.4553 101.11 39.4828 101.119 39.5154C101.129 39.5479 101.125 39.5829 101.11 39.613C101.098 39.6325 101.081 39.6485 101.062 39.6593C101.042 39.6701 101.019 39.6754 100.997 39.6746L100.994 39.6797ZM72.0011 38.7688C71.9784 38.7693 71.9561 38.763 71.9369 38.7509C71.4007 38.4404 70.8798 38.1171 70.3975 37.7862C70.3726 37.7661 70.3561 37.7375 70.3512 37.7059C70.3463 37.6743 70.3534 37.642 70.371 37.6154C70.3887 37.5887 70.4156 37.5697 70.4466 37.5618C70.4776 37.554 70.5104 37.5581 70.5386 37.5732C71.0261 37.8991 71.5418 38.2223 72.078 38.5302C72.1021 38.5445 72.1209 38.5663 72.1314 38.5922C72.142 38.6182 72.1438 38.6468 72.1365 38.6739C72.1292 38.7009 72.1133 38.7248 72.0912 38.742C72.069 38.7591 72.0419 38.7686 72.0139 38.7688H72.0011ZM97.6202 38.366H97.5894C97.0059 38.2276 96.4135 38.1299 95.8164 38.0735C95.7828 38.0703 95.7519 38.0539 95.7303 38.028C95.7086 38.002 95.6981 37.9686 95.701 37.935C95.7049 37.9012 95.7218 37.8702 95.7481 37.8486C95.7745 37.8271 95.8082 37.8166 95.8421 37.8195C96.447 37.8768 97.0471 37.9763 97.6381 38.1171C97.6722 38.1209 97.7033 38.138 97.7247 38.1647C97.7461 38.1914 97.756 38.2255 97.7523 38.2595C97.7486 38.2936 97.7315 38.3247 97.7048 38.3461C97.678 38.3675 97.6439 38.3775 97.6099 38.3737L97.6202 38.366ZM92.2193 38.2839C92.1902 38.2836 92.162 38.2736 92.1392 38.2555C92.1165 38.2373 92.1004 38.2121 92.0935 38.1839C92.0858 38.1509 92.0915 38.1161 92.1092 38.0873C92.127 38.0585 92.1555 38.0378 92.1885 38.0299C92.6391 37.9234 93.0971 37.8505 93.5586 37.8118C93.7074 37.8118 93.8588 37.7887 94.0076 37.781C94.0246 37.7792 94.0418 37.781 94.0581 37.7862C94.0743 37.7915 94.0893 37.8 94.1021 37.8114C94.1149 37.8227 94.1252 37.8366 94.1323 37.8521C94.1395 37.8677 94.1433 37.8845 94.1436 37.9016C94.145 37.9352 94.1331 37.968 94.1106 37.993C94.088 38.018 94.0566 38.0331 94.023 38.035C93.8742 38.035 93.7279 38.0556 93.5817 38.0684C93.1332 38.1056 92.6881 38.1759 92.25 38.2788L92.2193 38.2839ZM68.9914 36.7445C68.9628 36.745 68.9348 36.736 68.9119 36.7188C68.4244 36.3365 67.9574 35.9363 67.5238 35.5334C67.5118 35.5215 67.5023 35.5073 67.4957 35.4917C67.4892 35.476 67.4859 35.4593 67.4859 35.4423C67.4859 35.4254 67.4892 35.4086 67.4957 35.393C67.5023 35.3774 67.5118 35.3632 67.5238 35.3513C67.5482 35.3276 67.5809 35.3144 67.6149 35.3144C67.6489 35.3144 67.6816 35.3276 67.706 35.3513C68.1345 35.7515 68.5963 36.1466 69.0787 36.5238C69.1051 36.545 69.1221 36.5757 69.1259 36.6094C69.1298 36.643 69.1202 36.6768 69.0992 36.7034C69.0855 36.7168 69.0688 36.7267 69.0505 36.7325C69.0323 36.7383 69.0129 36.7398 68.994 36.7368L68.9914 36.7445ZM66.3436 34.2685C66.3252 34.2683 66.307 34.2644 66.2903 34.2569C66.2735 34.2494 66.2584 34.2385 66.2461 34.2249C65.8429 33.7665 65.4668 33.2851 65.1197 32.7829C65.1005 32.7549 65.093 32.7204 65.0987 32.6869C65.1044 32.6534 65.123 32.6234 65.1505 32.6033C65.1791 32.585 65.2135 32.5783 65.2469 32.5845C65.2803 32.5906 65.31 32.6093 65.3301 32.6367C65.6765 33.1289 66.0517 33.6001 66.4539 34.0479C66.4774 34.0718 66.4906 34.1041 66.4906 34.1377C66.4906 34.1712 66.4774 34.2035 66.4539 34.2275C66.4397 34.2409 66.4226 34.2508 66.4039 34.2566C66.3852 34.2624 66.3655 34.2638 66.3461 34.2608L66.3436 34.2685ZM64.291 31.2845C64.2673 31.2844 64.2441 31.2776 64.2242 31.2649C64.2042 31.2522 64.1882 31.2341 64.1781 31.2127C63.8968 30.6703 63.6541 30.1087 63.452 29.5321C63.4412 29.4998 63.4435 29.4645 63.4584 29.4339C63.4732 29.4032 63.4995 29.3795 63.5315 29.3679C63.5635 29.3573 63.5984 29.3596 63.6286 29.3745C63.6589 29.3894 63.6821 29.4156 63.6931 29.4474C63.8915 30.0136 64.1299 30.5649 64.4064 31.0972C64.4216 31.1275 64.4243 31.1626 64.4137 31.1948C64.4031 31.227 64.3802 31.2538 64.35 31.2691C64.3313 31.2767 64.311 31.2794 64.291 31.2768V31.2845ZM63.1184 27.8567C63.088 27.857 63.0584 27.8462 63.0353 27.8264C63.0122 27.8066 62.997 27.7791 62.9927 27.7489C62.967 27.6129 62.9465 27.4769 62.926 27.3384C62.8633 26.8861 62.8316 26.43 62.8311 25.9734V25.9195C62.8311 25.8855 62.8446 25.8529 62.8686 25.8288C62.8927 25.8048 62.9253 25.7912 62.9593 25.7912C62.9934 25.7912 63.026 25.8048 63.0501 25.8288C63.0741 25.8529 63.0876 25.8855 63.0876 25.9195V25.9708C63.0873 26.4155 63.1181 26.8596 63.18 27.2999C63.2005 27.4359 63.2211 27.5693 63.2441 27.7027C63.2501 27.7361 63.2427 27.7704 63.2235 27.7983C63.2043 27.8262 63.1748 27.8453 63.1415 27.8515L63.1184 27.8567ZM63.1312 24.2441H63.1082C63.0749 24.2379 63.0454 24.2187 63.0262 24.1908C63.007 24.163 62.9995 24.1286 63.0055 24.0953C63.1171 23.4926 63.2793 22.9003 63.4905 22.3249C63.5031 22.2932 63.5275 22.2675 63.5585 22.2532C63.5895 22.2388 63.6249 22.237 63.6572 22.2479C63.6887 22.26 63.7142 22.284 63.7281 22.3148C63.7421 22.3455 63.7433 22.3805 63.7316 22.4121C63.5242 22.9739 63.3654 23.5525 63.257 24.1415C63.2513 24.173 63.2338 24.2012 63.2081 24.2203C63.1823 24.2393 63.1502 24.2479 63.1184 24.2441H63.1312ZM64.3833 20.8547C64.3609 20.8536 64.339 20.8474 64.3192 20.8368C64.2899 20.8191 64.2687 20.7907 64.26 20.7577C64.2514 20.7246 64.256 20.6894 64.273 20.6597C64.5815 20.1296 64.9379 19.6289 65.3378 19.1639C65.361 19.1429 65.3912 19.1312 65.4225 19.1309C65.4538 19.1306 65.4841 19.1417 65.5077 19.1622C65.5314 19.1827 65.5467 19.2112 65.5509 19.2422C65.555 19.2732 65.5477 19.3047 65.5302 19.3307C65.1458 19.7861 64.8024 20.2747 64.5039 20.7906C64.4914 20.8128 64.4724 20.8308 64.4496 20.8423C64.4267 20.8537 64.401 20.858 64.3756 20.8547H64.3833ZM66.7464 18.1222C66.7199 18.122 66.6941 18.1137 66.6725 18.0983C66.651 18.0829 66.6347 18.0611 66.626 18.0361C66.6173 18.0111 66.6165 17.984 66.6238 17.9585C66.6312 17.933 66.6462 17.9104 66.6669 17.8938C67.1517 17.5174 67.6715 17.1884 68.2191 16.9112C68.2498 16.8958 68.2852 16.8933 68.3177 16.9042C68.3502 16.915 68.377 16.9383 68.3923 16.9689C68.4076 16.9995 68.4102 17.035 68.3993 17.0674C68.3885 17.0999 68.3652 17.1268 68.3346 17.1421C67.802 17.412 67.296 17.7316 66.8234 18.0965C66.7992 18.1151 66.7691 18.1242 66.7387 18.1222H66.7464ZM82.5053 16.5237C81.8943 16.5103 81.2849 16.4563 80.681 16.3621C80.647 16.3573 80.6163 16.3392 80.5956 16.3118C80.5749 16.2844 80.5659 16.2499 80.5707 16.2158C80.5755 16.1818 80.5936 16.1511 80.621 16.1304C80.6484 16.1097 80.6829 16.1007 80.717 16.1055C81.3114 16.199 81.9114 16.2521 82.513 16.2646C82.547 16.2646 82.5796 16.2781 82.6037 16.3022C82.6278 16.3262 82.6413 16.3588 82.6413 16.3929C82.6413 16.4269 82.6278 16.4595 82.6037 16.4836C82.5796 16.5076 82.547 16.5212 82.513 16.5212L82.5053 16.5237ZM69.9485 16.457C69.9316 16.4597 69.9144 16.4591 69.8978 16.4551C69.8812 16.4511 69.8656 16.444 69.8517 16.434C69.8379 16.4239 69.8262 16.4113 69.8173 16.3968C69.8083 16.3823 69.8024 16.3661 69.7997 16.3493C69.797 16.3324 69.7976 16.3152 69.8016 16.2986C69.8055 16.282 69.8127 16.2663 69.8227 16.2525C69.8327 16.2387 69.8454 16.227 69.8599 16.2181C69.8744 16.2091 69.8906 16.2031 69.9074 16.2004C70.488 16.012 71.0791 15.8578 71.6778 15.7386C71.6945 15.7353 71.7117 15.7353 71.7284 15.7386C71.745 15.742 71.7609 15.7487 71.775 15.7582C71.7891 15.7678 71.8011 15.78 71.8104 15.7943C71.8197 15.8085 71.8261 15.8245 71.8292 15.8412C71.8329 15.8576 71.8332 15.8746 71.8301 15.8911C71.8271 15.9076 71.8206 15.9233 71.8113 15.9373C71.8019 15.9512 71.7898 15.9631 71.7756 15.9721C71.7615 15.9812 71.7457 15.9873 71.7291 15.99C71.1402 16.1079 70.5585 16.2595 69.987 16.4442L69.9485 16.457ZM78.9081 16.0542H78.885C78.3334 15.9516 77.7099 15.8361 77.089 15.7489C77.0558 15.7438 77.0259 15.7259 77.0058 15.699C76.9856 15.6722 76.9768 15.6385 76.9812 15.6052C76.9831 15.5884 76.9883 15.5721 76.9967 15.5574C77.005 15.5427 77.0162 15.5298 77.0296 15.5195C77.043 15.5092 77.0584 15.5017 77.0747 15.4974C77.0911 15.4932 77.1082 15.4923 77.1249 15.4949C77.7407 15.5821 78.3667 15.7001 78.9209 15.8027C78.9542 15.809 78.9837 15.8281 79.0029 15.856C79.0221 15.8839 79.0295 15.9182 79.0236 15.9516C79.0192 15.9801 79.0055 16.0064 78.9846 16.0264C78.9637 16.0463 78.9368 16.0588 78.9081 16.0619V16.0542ZM73.4995 15.7232C73.4655 15.7253 73.432 15.7137 73.4065 15.6911C73.381 15.6685 73.3655 15.6366 73.3635 15.6026C73.3614 15.5686 73.373 15.5352 73.3956 15.5097C73.4182 15.4841 73.4501 15.4687 73.4841 15.4666C73.8099 15.4307 74.1589 15.3974 74.5104 15.3691C74.7362 15.3512 74.9748 15.3409 75.2185 15.3409H75.3032C75.32 15.3412 75.3367 15.3449 75.3521 15.3517C75.3675 15.3584 75.3815 15.3681 75.3932 15.3803C75.4049 15.3924 75.414 15.4068 75.4202 15.4225C75.4263 15.4382 75.4293 15.4549 75.4289 15.4718C75.427 15.5049 75.4128 15.5362 75.3891 15.5594C75.3654 15.5827 75.3338 15.5963 75.3006 15.5975H75.2185C74.9825 15.5975 74.7516 15.5975 74.5283 15.6231C74.1743 15.6514 73.8305 15.6847 73.502 15.7232H73.4995Z" fill="white"/>
<path d="M72.8224 60.6804C72.5171 60.6676 72.2143 60.6445 71.9218 60.6163C71.9051 60.615 71.8887 60.6104 71.8738 60.6027C71.8588 60.595 71.8456 60.5843 71.8348 60.5714C71.824 60.5585 71.816 60.5435 71.8111 60.5275C71.8062 60.5114 71.8046 60.4945 71.8064 60.4777C71.8073 60.4608 71.8117 60.4443 71.8193 60.4292C71.8269 60.4141 71.8375 60.4007 71.8505 60.3898C71.8635 60.379 71.8786 60.371 71.8948 60.3662C71.9111 60.3615 71.9281 60.3601 71.9449 60.3623C72.2348 60.3905 72.5325 60.411 72.8352 60.4239C72.8693 60.4239 72.9019 60.4374 72.9259 60.4614C72.95 60.4855 72.9635 60.5181 72.9635 60.5521C72.9635 60.5862 72.95 60.6188 72.9259 60.6429C72.9019 60.6669 72.8693 60.6804 72.8352 60.6804H72.8224Z" fill="white"/>
</g>
<path d="M96.689 6.83309L87.6292 6.46129C87.1733 6.44258 86.7885 6.79699 86.7698 7.25289L86.6015 11.3547C86.5828 11.8106 86.9372 12.1953 87.3931 12.214L96.4529 12.5858C96.9088 12.6045 97.2935 12.2501 97.3122 11.7942L97.4806 7.69244C97.4993 7.23654 97.1449 6.8518 96.689 6.83309Z" fill="#407BFF"/>
<path opacity="0.8" d="M96.689 6.83309L87.6292 6.46129C87.1733 6.44258 86.7885 6.79699 86.7698 7.25289L86.6015 11.3547C86.5828 11.8106 86.9372 12.1953 87.3931 12.214L96.4529 12.5858C96.9088 12.6045 97.2935 12.2501 97.3122 11.7942L97.4806 7.69244C97.4993 7.23654 97.1449 6.8518 96.689 6.83309Z" fill="white"/>
<path opacity="0.4" d="M92.0007 10.6225C91.9742 10.6224 91.9482 10.6143 91.9263 10.5994L87.2361 7.37166C87.222 7.36214 87.21 7.34991 87.2007 7.33569C87.1913 7.32147 87.1849 7.30555 87.1818 7.28884C87.1787 7.27213 87.179 7.25497 87.1826 7.23835C87.1862 7.22174 87.193 7.206 87.2027 7.19206C87.2223 7.16488 87.2517 7.14627 87.2846 7.14006C87.3175 7.13386 87.3516 7.14053 87.3798 7.1587L91.9981 10.3454L96.8731 7.5487C96.9027 7.53208 96.9377 7.52788 96.9704 7.53702C97.0031 7.54615 97.0308 7.56789 97.0475 7.59745C97.0644 7.62675 97.069 7.66151 97.0603 7.69418C97.0517 7.72685 97.0305 7.75478 97.0014 7.77192L92.07 10.5943C92.0505 10.6108 92.0262 10.6207 92.0007 10.6225Z" fill="#407BFF"/>
<path opacity="0.4" d="M96.7622 11.8771C96.7364 11.8773 96.7112 11.8692 96.6904 11.854L94.0066 9.98874C93.9925 9.97922 93.9805 9.96699 93.9712 9.95277C93.9618 9.93855 93.9555 9.92263 93.9524 9.90592C93.9492 9.88921 93.9495 9.87205 93.9531 9.85543C93.9567 9.83882 93.9635 9.82308 93.9732 9.80914C93.9933 9.78167 94.0233 9.76309 94.0568 9.75734C94.0903 9.7516 94.1248 9.75913 94.1528 9.77835L96.8366 11.6488C96.8504 11.6583 96.8622 11.6704 96.8712 11.6845C96.8802 11.6986 96.8864 11.7143 96.8892 11.7308C96.8921 11.7473 96.8917 11.7642 96.8879 11.7805C96.8842 11.7968 96.8772 11.8122 96.8674 11.8258C96.8552 11.8421 96.8393 11.8553 96.821 11.8642C96.8027 11.8731 96.7826 11.8775 96.7622 11.8771Z" fill="#407BFF"/>
<path opacity="0.4" d="M87.1509 11.482C87.1219 11.4834 87.0932 11.4748 87.0696 11.4578C87.0461 11.4407 87.029 11.4161 87.0212 11.3881C87.0135 11.36 87.0155 11.3302 87.0269 11.3034C87.0384 11.2767 87.0586 11.2546 87.0842 11.2408L89.9066 9.60388C89.9355 9.5908 89.9683 9.58892 89.9985 9.5986C90.0288 9.60828 90.0543 9.62884 90.0703 9.6563C90.0863 9.68376 90.0915 9.71616 90.0849 9.74723C90.0784 9.77831 90.0605 9.80585 90.0348 9.82453L87.2125 11.4641C87.194 11.4755 87.1727 11.4817 87.1509 11.482Z" fill="#407BFF"/>
<path d="M105.765 9.0317L87.7098 13.1497L85.3955 14.5789L105.765 9.0317Z" fill="#407BFF"/>
<path opacity="0.2" d="M87.7098 13.1497L85.3955 14.5789L105.765 9.0317" fill="black"/>
<path d="M105.765 9.0317L87.71 13.1497L89.4085 14.3993L105.765 9.0317Z" fill="#407BFF"/>
<path d="M105.765 9.0317L90.2857 12.1978L89.4082 14.3993L105.765 9.0317Z" fill="#407BFF"/>
<path opacity="0.2" d="M105.765 9.0317L90.2857 12.1978L89.4082 14.3993L105.765 9.0317Z" fill="black"/>
<path d="M105.765 9.0317L90.2861 12.1978L95.1611 13.9657L105.765 9.0317Z" fill="#407BFF"/>
</svg>
